<?xml version="1.0" encoding="UTF-8" standalone="no"?>
<svg
   xmlns="http://www.w3.org/2000/svg"
   width="256"
   height="256"
   version="1.0">
  <path
     d="M 115.26134,255.6909 C 106.2966,254.85576 92.760131,251.79951 84.302742,248.70109 77.210587,246.10283 64.059344,239.51008 57.884585,235.45759 26.242625,214.69104 6.1892328,182.66603 0.6633914,144.0761 -0.3423498,137.05246 -0.1727067,117.17914 0.9568267,109.7006 5.1675323,81.821971 17.5709,57.199591 37.385241,37.385241 57.199582,17.570901 81.821959,5.1675311 109.70059,0.95683111 c 7.47855,-1.12954 27.35187,-1.29918 34.3755,-0.29344 25.46618,3.64659999 47.34117,13.16181989 65.97063,28.69599989 13.85014,11.54894 24.81254,25.52979 32.87072,41.92154 6.2258,12.66437 9.34537,22.24067 11.68319,35.864449 1.50366,8.76269 1.87025,26.85228 0.73304,36.17244 -7.16125,58.69092 -53.03787,104.75677 -111.49524,111.95516 -5.78274,0.71208 -22.75508,0.96029 -28.57709,0.41792 z m 30.07856,-22.61784 c 23.17306,-3.91762 43.04434,-14.34858 59.41708,-31.18963 5.15058,-5.2979 10.6964,-11.92017 10.27192,-12.26571 -0.0988,-0.0805 -1.54463,-0.87001 -3.21285,-1.75455 -1.66822,-0.88453 -4.08502,-2.37859 -5.37067,-3.32012 l -2.33753,-1.71188 0.93084,-2.69531 c 1.13639,-3.29045 1.17751,-4.49127 0.23137,-6.75572 -0.70628,-1.69035 -0.69271,-1.75349 0.37914,-1.76419 1.55923,-0.0156 4.97152,-1.66106 6.11882,-2.95063 0.52965,-0.59535 1.34634,-1.08244 1.81484,-1.08244 1.82443,0 8.94969,-2.1056 12.20896,-3.6079 3.90818,-1.80139 3.86394,-1.71941 6.2369,-11.55776 2.80325,-11.62238 3.56168,-25.85126 2.01277,-37.76188 -4.06183,-31.234229 -21.47401,-58.834549 -48.00707,-76.096729 -12.8514,-8.36102 -30.68341,-14.72211 -45.45613,-16.21526 -0.90304,-0.0913 -0.9774,0.32188 -1.0741,5.9682 -0.11641,6.79631 -0.37168,7.83436 -1.92759,7.83841 -2.18914,0.006 -4.97053,1.11024 -6.54464,2.59901 -0.88881,0.84061 -1.31486,1.37148 -0.94679,1.1797 0.54688,-0.28493 0.5534,-0.1632 0.0357,0.66585 -0.60692,0.97182 -0.69169,0.93431 -2.01399,-0.89106 -0.79218,-1.09357 -2.42296,-2.40044 -3.82705,-3.06688 -1.50284,-0.71333 -3.76937,-2.58107 -5.87554,-4.84177 -1.88588,-2.02425 -4.99057,-4.71867 -6.8993,-5.98759 l -3.47042,-2.30714 -5.73875,1.48332 c -33.333852,8.6159 -60.616529,32.85451 -72.880756,64.74908 -4.818045,12.529889 -7.015484,24.344939 -7.051522,37.914159 -0.03577,13.46674 2.020121,25.25121 6.503359,37.27762 3.002674,8.05476 2.363745,7.615 6.784025,4.6692 2.080188,-1.38629 4.759859,-2.89582 5.954832,-3.35452 2.129117,-0.81728 2.188466,-0.81145 2.960433,0.29069 1.486134,2.12175 4.751812,4.08638 6.792528,4.08638 l 1.916257,0 -0.725186,1.39019 c -0.817728,1.56758 -0.959289,5.02196 -0.279114,6.81096 0.329615,0.86694 0.105846,2.21289 -0.824906,4.96175 -0.975819,2.88195 -1.338167,5.18959 -1.535503,9.77899 l -0.258286,6.00692 4.691517,4.52057 c 16.554841,15.9516 38.030889,26.4929 59.401322,29.15652 2.50234,0.31189 5.11841,0.66424 5.8135,0.78298 2.89303,0.49423 21.23311,-0.18287 25.78163,-0.95183 z m 10.43883,-12.25548 c -0.63915,-0.16984 0.80181,-1.10249 4.5497,-2.94476 3.01681,-1.4829 6.26043,-3.21309 7.20803,-3.84485 l 1.72292,-1.14866 -0.4151,1.49046 c -0.2283,0.81976 -0.47001,2.62789 -0.53713,4.01807 l -0.12203,2.52761 -5.73549,0.0754 c -3.15452,0.0414 -6.15642,-0.0365 -6.6709,-0.17322 z m -65.210537,-0.52169 c -1.18,-0.17655 -1.388528,-0.40881 -1.158111,-1.28993 0.262199,-1.00266 -0.246998,-4.18696 -0.971406,-6.07474 -0.200682,-0.52296 1.230663,0.0954 3.900669,1.68513 2.319719,1.38117 5.411972,3.00726 6.871665,3.61352 1.4597,0.60627 2.65399,1.25816 2.65399,1.44866 0,0.81579 -7.303042,1.21489 -11.296807,0.61736 z m 80.553327,-0.2695 c 0,-0.13221 0.90994,-0.84256 2.02209,-1.57854 1.42353,-0.94205 2.02209,-1.12989 2.02209,-0.6346 0,0.38696 -0.28563,0.94061 -0.63473,1.23034 -0.70215,0.58273 -3.40945,1.36313 -3.40945,0.9828 z m -86.780343,-0.99265 c -0.931136,-0.29955 -1.715155,-0.9555 -1.875658,-1.56926 -0.151677,-0.58001 -0.227925,-1.09558 -0.169446,-1.14569 0.05848,-0.0501 1.239545,0.67928 2.624589,1.62087 2.53672,1.72454 2.368356,2.04242 -0.579485,1.09408 z m 64.412923,-1.03106 c -1.59766,-0.90031 -3.96549,-2.5315 -5.26186,-3.62488 l -2.35703,-1.98795 4.60335,-1.15788 c 2.53184,-0.63684 6.59314,-1.96024 9.02512,-2.94089 2.43199,-0.98065 4.50225,-1.783 4.6006,-1.783 0.0983,0 -0.53751,1.04112 -1.41301,2.31362 -0.87549,1.27249 -2.48976,4.22979 -3.58725,6.57178 -1.09749,2.34199 -2.15512,4.25545 -2.35027,4.25214 -0.19516,-0.003 -1.662,-0.74264 -3.25965,-1.64294 z m -44.80507,-1.9428 c -0.63382,-1.63457 -2.26838,-4.68146 -3.63236,-6.77086 l -2.479955,-3.79892 1.887765,0.82005 c 4.31201,1.87316 11.87556,4.30515 14.27172,4.58894 l 2.56848,0.30419 -1.15719,1.26255 c -1.22729,1.33902 -6.85572,5.09423 -9.01752,6.01636 -1.24484,0.53099 -1.32763,0.44884 -2.44094,-2.42231 z m 65.65593,1.90147 c 0,-2.20206 1.64744,-5.99089 3.22327,-7.41296 7.10078,-6.4079 11.00266,-9.62367 10.06004,-8.29107 -0.60798,0.85951 -2.44027,4.09795 -4.07177,7.19652 -2.77145,5.26362 -3.17152,5.76638 -6.08895,7.65201 -3.01041,1.94572 -3.12259,1.97645 -3.12259,0.8555 z m -85.092669,-1.86876 c -2.607912,-1.75759 -3.222966,-2.52537 -5.368816,-6.70201 -1.332915,-2.59436 -3.052519,-5.71348 -3.821342,-6.93137 -1.35399,-2.14486 -1.262779,-2.09417 2.90616,1.61499 2.367208,2.10614 5.000023,4.34392 5.850695,4.97285 1.815648,1.34237 3.756808,5.50455 3.534388,7.57833 l -0.155751,1.4522 -2.945334,-1.98499 z m 71.077649,1.05774 c 0.50011,-1.91244 4.43824,-8.40523 7.87791,-12.98834 1.82426,-2.43068 5.94188,-7.05841 9.15028,-10.28386 5.74327,-5.77379 5.92353,-5.90364 11.65883,-8.39856 l 5.82536,-2.53411 2.15007,0.93759 2.15007,0.93757 -1.65641,2.31289 c -10.26321,14.33084 -26.13285,27.80447 -36.2323,30.76193 -1.06145,0.31083 -1.17582,0.21859 -0.92381,-0.74511 z m 21.09233,0.30804 c 0,-2.23687 9.11142,-18.4 15.14947,-26.87424 3.70385,-5.19827 3.85283,-5.37898 6.20883,-7.53091 2.6012,-2.37589 1.70663,-5.92188 -1.97155,-7.81508 -0.89013,-0.45816 -1.14799,-0.40096 -1.4244,0.31597 -0.21697,0.56278 -0.0252,1.05593 0.53701,1.38093 1.32485,0.76583 2.73256,2.21002 2.73256,2.80334 0,0.86903 -2.4125,3.0103 -3.3893,3.00827 -2.448,-0.005 -5.71009,-3.68712 -5.71009,-6.44516 0,-1.42018 2.01875,-4.20883 4.02617,-5.56162 3.44263,-2.31999 5.49788,-2.13312 8.55826,0.77815 3.35309,3.18972 3.31311,6.19152 -0.15924,11.95794 -0.98745,1.63981 -1.92719,3.79624 -2.08832,4.79206 -0.38415,2.37423 -3.37499,9.87127 -5.96575,14.95416 -2.52472,4.95335 -8.17841,10.81695 -12.79491,13.26996 -3.48683,1.85275 -3.70874,1.91056 -3.70874,0.96623 z m -99.500731,-1.72452 c -4.443736,-2.69199 -7.787006,-5.71985 -10.475069,-9.48683 -2.618705,-3.66979 -7.372023,-14.25169 -8.256408,-18.38054 -0.320157,-1.4947 -1.418247,-4.0723 -2.440201,-5.72799 -1.452445,-2.35315 -1.905762,-3.6694 -2.076452,-6.0292 l -0.218365,-3.01886 2.346406,-2.24825 c 2.022831,-1.93822 2.641469,-2.248 4.486002,-2.24637 3.770801,0.003 7.953096,3.69592 7.953096,7.02186 0,4.43488 -5.258339,7.95661 -7.757241,5.19536 -1.31095,-1.44859 -1.041901,-3.04993 0.676737,-4.02789 1.842557,-1.04846 2.137059,-2.87573 0.382337,-2.37224 -1.608961,0.46166 -3.921138,3.08566 -3.899881,4.42582 0.02435,1.53555 1.13375,3.4262 2.411785,4.11018 3.731587,1.99709 22.998787,34.68066 20.444495,34.68066 -0.246371,0 -1.85613,-0.85307 -3.577241,-1.89571 z m 23.166901,1.14401 c -3.587536,-1.26654 -8.994727,-4.29029 -13.160218,-7.35932 -5.519533,-4.06664 -14.326859,-12.8942 -19.873179,-19.91884 l -4.36949,-5.53412 2.398358,-0.91172 2.398354,-0.91172 5.560742,2.40167 c 5.41266,2.33771 5.715756,2.55648 11.381667,8.21517 6.746773,6.73817 12.484439,14.14686 15.592076,20.13309 1.20181,2.31503 2.10769,4.27693 2.01306,4.35979 -0.0946,0.0829 -0.96824,-0.13044 -1.94137,-0.474 z m 36.51134,-10.05985 c -2.10691,-3.20461 -4.15925,-7.4345 -4.1565,-8.56658 0.001,-0.41472 1.91575,-0.61258 6.4454,-0.66603 3.54419,-0.0418 7.56716,-0.30477 8.93993,-0.58433 l 2.49596,-0.5083 -2.86493,2.513 c -1.5757,1.38215 -4.14164,4.43179 -5.70208,6.77698 -1.56043,2.34519 -2.88167,4.26398 -2.93608,4.26398 -0.0544,0 -1.05418,-1.45293 -2.2217,-3.22872 z m 5.99662,1.23622 c 2.62199,-4.6652 9.89472,-11.878 12.59394,-12.49017 4.01769,-0.91119 13.88171,-3.94562 17.94603,-5.52068 0.55608,-0.2155 -0.80987,1.52415 -3.03543,3.86589 -2.22557,2.34173 -5.03962,5.44221 -6.25346,6.88996 -1.94353,2.31805 -2.8786,2.91614 -7.83329,5.0104 -6.49767,2.74644 -11.08689,4.22773 -13.1151,4.23324 l -1.42254,0.004 1.11985,-1.9925 z m -31.38648,0.71984 c -2.9276,-0.71908 -10.11635,-3.50854 -13.764706,-5.34116 -1.187583,-0.59653 -3.174916,-2.2529 -4.416302,-3.6808 -1.24139,-1.42791 -4.053604,-4.45775 -6.249374,-6.733 l -3.9923,-4.1368 5.491087,1.92047 c 3.020094,1.05627 7.538451,2.44424 10.040785,3.08438 3.90898,0.99998 5.01244,1.53883 7.83559,3.82633 3.35227,2.71622 6.39194,6.21905 8.51883,9.81684 1.38741,2.34691 1.24135,2.39936 -3.46361,1.24374 z m 4.8032,-2.83656 c -1.0934,-1.77147 -3.55667,-4.78952 -5.47392,-6.70679 -2.44865,-2.44866 -3.13073,-3.37763 -2.29226,-3.12195 0.65651,0.20019 4.66841,0.49145 8.91533,0.64723 7.56783,0.27761 7.71524,0.30457 7.39864,1.35263 -0.585,1.93654 -3.75337,7.6881 -5.16977,9.38471 l -1.39001,1.66502 -1.98801,-3.22085 z m 19.48494,-10.49227 c -1.18039,-0.32927 -1.09434,-0.458 1.76932,-2.64707 7.65209,-5.84947 18.13626,-11.37584 29.72323,-15.66759 3.9285,-1.45509 4.03462,-1.46548 11.62728,-1.1381 l 7.6626,0.3304 1.08865,2.75021 1.08866,2.75021 -3.36377,1.51881 c -14.51032,6.5517 -28.95698,10.84348 -40.44683,12.01584 -5.76577,0.5883 -7.30054,0.60294 -9.14914,0.0873 z m -27.35744,-1.33762 c -5.10735,-0.79623 -11.01019,-2.26179 -17.657102,-4.38393 -8.336003,-2.66141 -21.737448,-8.21885 -21.737448,-9.01429 0,-0.2051 0.339827,-1.02449 0.755169,-1.82087 0.415342,-0.79639 0.756569,-1.95981 0.758283,-2.5854 0.0031,-1.13389 0.02926,-1.13742 8.421451,-1.13742 l 8.418333,0 5.862665,2.33321 c 10.810719,4.30244 25.830869,12.73335 29.068649,16.31643 l 0.96301,1.06572 -5.25995,-0.049 c -2.89298,-0.0269 -7.20985,-0.35294 -9.59306,-0.72448 z m 23.61156,-2.43835 c -0.17192,-1.43094 -0.31457,-4.39124 -0.31698,-6.57846 -0.004,-3.89757 0.0182,-3.96938 1.13303,-3.60637 3.83117,1.24755 9.97762,2.73213 11.40408,2.75447 2.16161,0.0338 1.83227,0.47875 -2.03415,2.74788 -1.74751,1.02556 -4.68391,3.08406 -6.52534,4.57442 l -3.34805,2.70976 -0.31259,-2.6017 z m -8.66249,0.32324 c -2.25313,-1.96922 -6.99426,-5.28605 -9.98087,-6.98247 l -1.95669,-1.11142 4.61821,-0.84492 c 2.54001,-0.4647 5.78112,-1.28678 7.20245,-1.82684 1.42134,-0.54007 2.6355,-0.93047 2.69815,-0.86755 0.0626,0.0629 -0.0375,3.10376 -0.22264,6.75744 l -0.33652,6.64306 -2.02209,-1.7673 z m 17.69327,-10.03557 c -3.97087,-0.78169 -7.83559,-2.123 -7.83559,-2.71947 0,-0.52597 5.68021,-3.24994 8.84664,-4.24244 5.47647,-1.71658 8.56786,-1.96027 13.8012,-1.08796 2.69671,0.4495 6.49551,0.98116 8.44177,1.18145 l 3.53865,0.36418 -2.78037,0.9372 c -1.52921,0.51546 -5.64268,2.15703 -9.14106,3.64792 -7.02375,2.9933 -8.46784,3.17965 -14.87124,1.91912 z m -37.66139,-1.89409 c -2.64135,-1.20859 -6.570923,-2.83732 -8.732374,-3.61942 -2.161455,-0.78209 -3.861561,-1.49035 -3.778014,-1.5739 0.311068,-0.31106 14.357418,-2.22606 16.347318,-2.22869 3.02777,-0.004 9.53121,1.78256 13.72996,3.77179 2.01577,0.95501 3.66504,1.87294 3.66504,2.03985 0,0.94241 -7.4572,2.88919 -13.39634,3.49725 -2.8257,0.28931 -3.36156,0.16027 -7.83559,-1.88688 z m 28.13317,-6.28733 c -0.43358,-4.59081 -0.41236,-7.83589 0.0497,-7.59943 3.23717,1.65662 7.25551,3.33341 10.63119,4.43622 l 4.18579,1.36747 -3.4275,0.84246 c -1.88513,0.46335 -5.10038,1.63516 -7.14501,2.604 -2.04463,0.96886 -3.77474,1.76156 -3.84469,1.76156 -0.07,0 -0.27221,-1.53553 -0.44946,-3.41228 z m -7.65953,1.85565 c -2.09986,-1.35305 -6.50033,-2.9723 -10.09946,-3.71632 l -3.02215,-0.62474 3.78043,-1.1436 c 2.07925,-0.62898 5.46174,-1.91808 7.51667,-2.86466 2.05492,-0.94659 3.81793,-1.72106 3.91779,-1.72106 0.0999,0 0.18157,2.50233 0.18157,5.56074 0,3.05841 -0.17061,5.54412 -0.37914,5.52379 -0.20853,-0.0203 -1.0616,-0.47669 -1.89571,-1.01415 z m 48.78288,-1.51498 c -10.4335,-0.78642 -21.22205,-2.70224 -28.37522,-5.03887 -4.58586,-1.498 -11.0555,-4.44476 -11.0555,-5.03551 0,-0.70535 7.99339,-2.07125 15.44524,-2.63925 5.59739,-0.42665 9.85345,-0.44082 15.71092,-0.0523 7.06645,0.4687 8.35054,0.69335 10.6641,1.86573 1.44665,0.73307 5.41165,2.47616 8.81111,3.87354 3.39946,1.39737 6.28126,2.6411 6.404,2.76384 0.12275,0.12274 -0.48955,1.03492 -1.36067,2.02707 -0.87111,0.99214 -1.58384,2.02346 -1.58384,2.29183 0,0.56242 -6.79945,0.53642 -14.66014,-0.0561 z M 70.017114,173.16121 c 0,-0.26836 -0.704769,-1.29062 -1.566158,-2.27169 -1.424778,-1.62273 -1.481822,-1.81367 -0.631902,-2.11519 0.513842,-0.18229 4.574014,-1.91568 9.022608,-3.85196 5.77291,-2.51271 9.101358,-3.66043 11.627007,-4.00925 5.434139,-0.75052 25.423721,-0.20532 30.578261,0.83401 6.16305,1.24267 6.2959,1.40885 2.61255,3.2682 -7.23635,3.6529 -18.71049,6.46687 -32.03901,7.8574 -8.387905,0.87509 -19.603356,1.04013 -19.603356,0.28848 z m 131.591526,-4.7881 c -2.31757,-1.07905 -2.69196,-1.47224 -3.20067,-3.36145 -0.92121,-3.42113 0.27652,-7.61614 2.64895,-9.27787 1.48089,-1.03725 4.67682,-1.00491 6.48915,0.0657 4.14042,2.44581 2.15579,7.63881 -2.08187,5.44743 -1.1103,-0.57416 -1.76122,-0.66604 -2.12703,-0.30023 -1.39734,1.39734 3.57917,3.72629 5.62396,2.63195 1.42911,-0.76484 2.55778,-2.53945 2.78166,-4.37363 0.23373,-1.9148 6.06008,-13.59281 10.25697,-20.55846 3.2903,-5.46097 8.71321,-13.11821 9.7397,-13.75261 0.8757,-0.54122 0.68655,8.90299 -0.25111,12.53745 -1.1799,4.57338 -3.9119,9.38984 -7.714,13.59957 -3.46233,3.83354 -9.1681,10.77227 -12.108,14.72442 -1.73336,2.33018 -4.20746,3.85316 -6.24573,3.84469 -0.65307,-0.003 -2.36846,-0.55483 -3.81198,-1.22692 z M 48.384759,167.4565 c -0.899642,-0.62559 -2.485617,-2.30173 -3.524389,-3.72476 -1.921347,-2.63207 -7.538223,-9.51907 -12.422759,-15.23186 -3.304264,-3.86457 -5.741184,-8.73132 -6.718105,-13.41664 -0.795378,-3.81466 -0.755285,-10.7225 0.06223,-10.7225 0.697292,0 4.926039,5.7372 8.824125,11.97181 4.305207,6.88576 11.145138,20.53313 11.14573,22.23852 2.57e-4,0.74328 0.589403,2.05131 1.309211,2.90675 1.579099,1.87666 3.680797,2.05392 6.192938,0.52234 1.40159,-0.8545 1.582572,-1.15648 1.066075,-1.77882 -0.549255,-0.66181 -0.759673,-0.65946 -1.796777,0.0201 -1.800037,1.17943 -3.662608,0.98238 -4.318366,-0.45686 -0.96988,-2.12865 -0.14828,-3.78678 2.444669,-4.93376 1.99572,-0.8828 2.608893,-0.94856 4.252684,-0.45607 2.586109,0.77482 4.116006,3.01432 4.40018,6.44111 0.315021,3.79873 -0.529757,5.51955 -3.314299,6.75129 -3.008897,1.33098 -5.564382,1.28707 -7.603147,-0.13063 z m 138.155191,-0.81671 c -11.79447,-4.98906 -25.59963,-12.80379 -35.13379,-19.8883 -5.39205,-4.00665 -17.75312,-16.13602 -16.77614,-16.46169 0.90251,-0.30083 7.66564,1.27042 12.98473,3.01669 11.354,3.72756 31.54292,15.25046 43.61985,24.89619 4.14915,3.31389 4.72594,4.09277 5.31782,7.18099 0.29459,1.53707 0.21949,1.62024 -2.16827,2.40123 -1.36039,0.44496 -2.65817,0.80236 -2.88397,0.79421 -0.22579,-0.008 -2.4579,-0.88084 -4.96023,-1.93932 z m -122.589101,0.69033 c -0.695092,-0.39735 -1.669739,-0.73052 -2.165879,-0.74037 -0.792972,-0.0158 -0.861116,-0.33891 -0.563419,-2.67191 0.18626,-1.45969 0.364709,-2.67645 0.396552,-2.7039 3.194004,-2.75357 12.043016,-9.3249 16.863068,-12.52262 10.94623,-7.26193 21.861429,-12.85134 31.659449,-16.21202 4.16524,-1.42865 12.52244,-3.41295 12.87776,-3.05764 0.36272,0.36273 -3.83691,5.07039 -8.24851,9.24633 -7.68789,7.27723 -17.763505,14.21359 -30.159876,20.763 -5.396347,2.85105 -18.235187,8.67892 -19.032895,8.63949 -0.199343,-0.01 -0.931157,-0.34301 -1.62625,-0.74036 z m 67.234431,-11.92662 0,-6.61863 2.64049,2.37403 c 1.45227,1.30571 4.86443,3.68889 7.58259,5.29596 l 4.94209,2.92193 -3.41202,0.36503 c -1.87662,0.20076 -5.09769,0.79596 -7.15793,1.32267 -2.06025,0.5267 -3.937,0.95764 -4.17056,0.95764 -0.23356,0 -0.42466,-2.97838 -0.42466,-6.61863 z m -7.07731,5.53563 c -1.7708,-0.71935 -8.33936,-1.95013 -10.40767,-1.95013 -0.94867,0 -1.72486,-0.19025 -1.72486,-0.42277 0,-0.23253 2.01521,-1.61564 4.47824,-3.07358 2.46304,-1.45795 5.64783,-3.67393 7.07731,-4.92441 l 2.59907,-2.2736 0,6.61098 c 0,3.63605 -0.17061,6.59658 -0.37914,6.57895 -0.20853,-0.0176 -0.94785,-0.26307 -1.64295,-0.54544 z m 40.69453,-0.95854 c -1.66822,-0.20698 -5.5705,-0.40102 -8.67173,-0.4312 l -5.63859,-0.0549 -4.47185,-2.34891 c -7.11041,-3.73488 -12.64555,-7.81651 -12.00517,-8.85267 0.38092,-0.61635 9.42255,-0.52217 13.2113,0.13761 2.58377,0.44995 4.16593,1.17584 7.877,3.61393 2.5541,1.67799 6.8034,4.26819 9.44289,5.75599 2.63949,1.48781 4.45937,2.67165 4.04418,2.63078 -0.4152,-0.0409 -2.11981,-0.24367 -3.78803,-0.45066 z m 25.78162,-4.13037 c -3.05841,-2.46507 -6.62393,-5.21275 -7.92339,-6.10595 -2.76138,-1.89807 -6.79979,-8.00277 -12.11002,-18.30622 -3.26423,-6.33359 -7.01202,-15.9688 -7.01202,-18.02724 0,-0.863 0.41755,-0.70704 3.15952,1.18004 8.82156,6.07119 21.94345,22.27838 30.45914,37.62087 l 1.42916,2.57487 -1.04248,2.22759 c -0.57337,1.22517 -1.12274,2.47292 -1.22083,2.77278 -0.0981,0.29986 -2.68067,-1.47167 -5.73908,-3.93674 z m -129.668294,2.75964 c -0.001,-0.48656 -0.464605,-1.64362 -1.030147,-2.57125 l -1.028263,-1.68657 1.860226,-3.36865 c 2.88101,-5.21717 10.815325,-17.05702 14.622493,-21.82019 6.078094,-7.60433 17.645848,-18.14692 18.726169,-17.0666 0.159164,0.15916 -0.532658,2.75622 -1.537383,5.77124 -3.682759,11.05142 -12.680162,27.03359 -17.315657,30.75796 -7.027995,5.64662 -13.760533,10.86872 -14.012374,10.86872 -0.155746,0 -0.284022,-0.39809 -0.285064,-0.88466 z m 28.311126,0.74756 c 0.139018,-0.15375 1.958898,-1.24118 4.044176,-2.41652 2.085279,-1.17534 6.026492,-3.60586 8.758252,-5.40116 4.30007,-2.82597 5.4877,-3.35706 8.84664,-3.95608 4.01246,-0.71557 9.36601,-0.84512 11.91084,-0.28824 l 1.45926,0.31934 -2.24707,2.0696 c -2.21416,2.0393 -6.84341,4.94465 -11.79293,7.40133 -2.17182,1.07798 -3.48825,1.299 -9.35216,1.57016 -3.753502,0.17357 -7.961973,0.46533 -9.352159,0.64835 -1.390186,0.18301 -2.413868,0.20697 -2.274849,0.0532 z m 120.727328,-4.13819 c -0.74594,-0.64821 -1.60712,-1.26219 -1.91374,-1.3644 -0.32726,-0.10909 -0.77718,-2.81702 -1.08947,-6.55727 -0.51026,-6.11106 -0.4794,-6.5691 0.75517,-11.2075 2.54788,-9.57273 7.23499,-20.44635 11.55981,-26.81759 1.17795,-1.73533 2.19285,-2.76928 2.458,-2.50413 0.8318,0.83181 1.10922,9.39721 0.47995,14.81909 -1.03839,8.94687 -4.72324,21.39255 -9.2453,31.22626 l -1.64817,3.58412 -1.35625,-1.17858 z M 44.542038,151.81206 c -4.130216,-9.06316 -7.265186,-19.00795 -8.653688,-27.45132 -0.760235,-4.62292 -0.942677,-15.64376 -0.297085,-17.94603 0.344381,-1.22812 0.40653,-1.19243 2.200921,1.2638 4.287479,5.86889 8.920705,16.39979 11.929198,27.11398 1.462698,5.20914 1.473233,5.34046 0.93873,11.69926 -0.297318,3.53705 -0.709607,6.43099 -0.916204,6.43099 -0.206591,0 -1.078228,0.5912 -1.936963,1.31378 l -1.56134,1.31378 -1.703569,-3.73824 z m 151.276792,-4.63722 -3.86468,-6.71593 -0.90699,-6.53252 c -1.13455,-8.1715 -1.2773,-24.24874 -0.27304,-30.75152 l 0.69552,-4.503639 0.93954,1.21775 c 1.69245,2.193609 4.99568,9.418479 6.7307,14.721479 2.90582,8.88147 5.49708,22.77643 6.16478,33.05708 l 0.33176,5.108 -2.21817,0.27051 c -1.21999,0.14879 -2.55939,0.39971 -2.97645,0.55761 -0.55566,0.21038 -1.79095,-1.50744 -4.62297,-6.42882 z m -139.074875,5.70572 c -0.488324,-0.28444 -1.796362,-0.5534 -2.906752,-0.59768 -2.33263,-0.093 -2.231905,0.37743 -1.502118,-7.01579 0.822768,-8.33523 2.91937,-20.10718 4.809208,-27.00265 1.943283,-7.09046 3.725849,-11.6289 6.553391,-16.68503 2.239154,-4.003979 2.487138,-3.826919 3.258737,2.32667 1.29584,10.33456 0.101574,32.1584 -2.004587,36.63137 -0.793958,1.68618 -5.560591,10.11375 -6.92499,12.24365 -0.281905,0.44006 -0.649268,0.46854 -1.282889,0.0995 z m 74.441265,-10.87665 c 3e-5,-2.25186 0.14552,-5.81509 0.32331,-7.9183 l 0.32324,-3.82401 2.21406,2.94535 c 1.21774,1.61994 4.55751,5.18318 7.42171,7.91829 l 5.20766,4.97295 -7.74503,0 -7.74502,0 7e-5,-4.09428 z m -15.2964,-1.45411 c 3.10294,-2.95243 6.6766,-6.74476 7.94147,-8.42741 l 2.29977,-3.05937 0,8.40084 0,8.40083 -1.39018,-0.36669 c -1.90093,-0.50141 -11.15434,-0.4941 -12.9967,0.0103 -1.1923,0.32641 -0.35056,-0.68037 4.14564,-4.95847 z m 57.01519,2.66188 c -2.21705,-1.41399 -6.36308,-3.80519 -9.21339,-5.31378 -4.61848,-2.44442 -5.45796,-3.11012 -7.71507,-6.11793 -4.0222,-5.35997 -6.87893,-11.21064 -5.47386,-11.21064 1.23526,0 8.16114,3.55123 12.60326,6.4623 3.69506,2.42149 4.6146,3.31023 5.96326,5.76344 0.877,1.59526 2.90382,4.89984 4.50404,7.34352 3.41495,5.2149 3.72635,5.71713 3.51899,5.67542 -0.0859,-0.0173 -1.97017,-1.18833 -4.18723,-2.60233 z m -92.504995,1.59244 c 0.166185,-0.26888 1.747302,-2.66546 3.513591,-5.32572 1.766294,-2.66026 3.852588,-6.06141 4.636208,-7.5581 1.209153,-2.30945 2.114154,-3.17423 5.980291,-5.71453 4.913925,-3.22876 7.888255,-4.83558 10.951775,-5.91645 2.57386,-0.90811 2.56433,-0.30266 -0.0748,4.75251 -3.41017,6.53213 -6.07929,9.36331 -11.351751,12.041 -2.516044,1.2778 -6.685767,3.64784 -9.266048,5.26673 -2.580285,1.6189 -4.555456,2.72346 -4.389276,2.45456 z M 35.63615,135.6084 c -0.970122,-1.69753 -2.926275,-4.72146 -4.347004,-6.71987 -2.449573,-3.44557 -2.595876,-3.8318 -2.829311,-7.46923 -0.226656,-3.53173 -0.176256,-3.79837 0.63581,-3.36377 1.831961,0.98044 5.006675,5.16567 5.305671,6.99449 0.165306,1.01109 0.938512,4.45441 1.718234,7.65184 0.779723,3.19742 1.386804,5.85388 1.349072,5.90322 -0.03774,0.0493 -0.862345,-1.29917 -1.832472,-2.99668 z m 184.79448,2.40144 c 0.17704,-0.55608 0.87541,-3.51338 1.55194,-6.57179 0.67653,-3.05841 1.34454,-6.07832 1.48448,-6.71091 0.28461,-1.28659 3.40685,-4.94032 4.90841,-5.74392 0.93684,-0.50139 0.96129,-0.37113 0.6179,3.2933 -0.34082,3.63708 -0.52607,4.07308 -3.96496,9.33204 -1.98409,3.0342 -3.90268,5.94322 -4.26354,6.46452 -0.62951,0.90937 -0.64306,0.9068 -0.33423,-0.0632 z M 67.687001,135.48223 c 0.552404,-2.81389 1.824591,-14.10798 1.824591,-16.19815 0,-2.52115 2.776747,-6.77542 7.634869,-11.69743 3.957565,-4.00961 4.338031,-3.65865 3.523256,3.24996 -0.801738,6.79803 -2.580402,11.75442 -5.564792,15.50669 -1.344117,1.68996 -3.630002,4.7788 -5.079748,6.86408 -2.086047,3.00052 -2.57379,3.47506 -2.338176,2.27485 z m 117.218149,-5.06024 c -5.01793,-6.70274 -6.19441,-9.08898 -7.42975,-15.06963 -0.84898,-4.11019 -1.06644,-9.94869 -0.37055,-9.94869 0.62978,0 6.66869,6.4455 8.80374,9.39649 1.76409,2.43826 1.88814,2.8718 2.38659,8.34111 0.28918,3.17304 0.77039,7.43784 1.06936,9.47733 0.29896,2.03948 0.46818,3.7825 0.37605,3.87338 -0.0921,0.0909 -2.26808,-2.64061 -4.83544,-6.06999 z m -133.533266,5.06024 c -0.03378,-0.55608 -1.317037,-4.72119 -2.851696,-9.25581 l -2.790279,-8.24477 0.55797,-5.65709 c 0.587477,-5.95627 1.549126,-11.25154 2.495277,-13.740089 0.648665,-1.70613 0.709101,-1.65003 3.008488,2.792829 1.967714,3.80201 3.639678,9.50437 3.733629,12.73385 0.04267,1.46672 -0.544265,5.39658 -1.304298,8.73303 -0.760037,3.33644 -1.698185,7.7724 -2.084777,9.85768 -0.386593,2.08527 -0.730535,3.33644 -0.764314,2.78037 z m 153.720006,-3.42714 c -0.33185,-2.28563 -1.17266,-6.50191 -1.86845,-9.3695 -1.53562,-6.32881 -1.57016,-8.35678 -0.22566,-13.24791 1.08178,-3.93538 4.34182,-11.111319 5.04788,-11.111319 1.03383,0 2.86967,8.909439 3.31705,16.097789 l 0.30379,4.88137 -2.76951,8.23653 c -1.52324,4.53008 -2.86677,8.33377 -2.98562,8.45262 -0.11886,0.11886 -0.48762,-1.65396 -0.81948,-3.93958 z M 148.3222,131.3721 c -3.50343,-1.21955 -8.11,-2.49422 -10.23683,-2.83261 -2.12682,-0.3384 -3.861,-0.73459 -3.85372,-0.88044 0.017,-0.33966 13.15779,-7.75255 13.3274,-7.51813 0.0699,0.0966 0.63338,1.53141 1.25219,3.18846 0.61881,1.65704 2.22955,4.67122 3.57942,6.69816 1.34988,2.02695 2.41992,3.65758 2.37786,3.62364 -0.042,-0.034 -2.9429,-1.05954 -6.44632,-2.27908 z m -43.85432,-0.97318 c 2.02462,-2.77712 4.02306,-6.5865 4.93714,-9.41106 l 0.60074,-1.8563 5.91368,3.32787 c 8.66629,4.87689 8.37127,4.38923 3.25946,5.38782 -3.69222,0.72126 -11.52211,3.06794 -15.5334,4.65548 -0.77862,0.30815 -0.59665,-0.15738 0.82238,-2.10381 z m 59.07081,-5.09923 c -2.98512,-2.07458 -7.70008,-4.56958 -10.48958,-5.55074 -1.45969,-0.51343 -2.65399,-1.05284 -2.65399,-1.1987 0,-0.33182 10.63437,-6.24543 10.78544,-5.99761 0.0607,0.0996 0.49797,1.72364 0.97168,3.60897 0.4737,1.88533 1.4564,4.91543 2.18376,6.73356 0.72737,1.81814 1.24363,3.3796 1.14725,3.46993 -0.0964,0.0903 -0.97143,-0.38911 -1.94456,-1.06541 z m -69.945256,-4.19638 c 0.934038,-2.48667 1.946942,-5.68085 2.250902,-7.09817 l 0.552652,-2.57694 2.102112,1.22829 c 1.15615,0.67556 3.67614,2.0919 5.59997,3.14743 3.29989,1.81053 3.42864,1.94661 2.27485,2.40431 -3.79248,1.50441 -8.15189,3.66666 -10.930195,5.42132 -1.737373,1.09725 -3.246538,1.995 -3.353699,1.995 -0.107155,0 0.569375,-2.03456 1.503408,-4.52124 z m 26.891556,0.3988 -6.90887,-4.02171 2.61764,-3.64845 c 1.4397,-2.00664 3.2852,-5.122 4.10112,-6.92303 l 1.48348,-3.27458 0.60847,3.53865 c 0.83094,4.8324 2.01759,9.25568 3.77461,14.07004 0.81318,2.22816 1.42313,4.10285 1.35547,4.16599 -0.0677,0.0631 -3.23203,-1.69496 -7.03192,-3.90691 z m 10.84877,2.44258 c 1.65333,-4.30852 3.55674,-10.89623 4.27241,-14.78686 0.4821,-2.62087 0.99267,-4.76435 1.13458,-4.76331 0.14192,0.001 0.70159,1.08159 1.24372,2.40123 0.54212,1.31963 2.20318,4.18845 3.69125,6.37516 1.48806,2.18671 2.6369,4.02344 2.55297,4.08162 -0.42827,0.29688 -10.93876,6.30155 -11.98264,6.84571 -1.0478,0.54621 -1.17274,0.52518 -0.91229,-0.15355 z m 98.98423,-0.86581 c 0.0277,-0.68516 0.21664,-1.81446 0.41983,-2.50955 0.3599,-1.23116 0.37954,-1.21992 0.76034,0.43502 0.29341,1.27516 0.18871,1.90102 -0.41983,2.50956 -0.74395,0.74395 -0.80658,0.70812 -0.76034,-0.43503 z M 26.440527,122.7178 c -0.605585,-0.70131 -0.656835,-1.25138 -0.247266,-2.654 0.284159,-0.97313 0.579551,-1.42809 0.656425,-1.01104 0.187362,1.01645 0.519475,4.5497 0.427657,4.5497 -0.0401,0 -0.416662,-0.3981 -0.836816,-0.88466 z m 101.966483,-1.39019 c -1.41881,-3.23458 -3.73117,-13.02332 -4.5205,-19.13636 -1.65179,-12.792399 -1.46443,-28.226189 0.51494,-42.417649 0.77327,-5.5441 0.80121,-5.61729 2.83328,-7.42059 l 2.0523,-1.82126 1.95586,1.78783 c 1.89125,1.72878 1.98082,1.96291 2.71209,7.08869 3.00159,21.03979 1.83011,44.218439 -2.97239,58.810669 l -1.68861,5.13076 -0.88697,-2.02209 z m 95.54157,-7.66292 0,-7.30594 1.13665,1.41816 c 0.62516,0.77999 1.96934,2.99885 2.98705,4.9308 1.74012,3.30328 1.79487,3.5443 0.91862,4.04417 -0.51248,0.29236 -1.85665,1.36117 -2.98705,2.37515 l -2.05527,1.8436 0,-7.30594 z m -50.04669,4.04776 c -1.66822,-1.5462 -4.46369,-3.83703 -6.21215,-5.09072 l -3.17903,-2.27944 4.83184,-2.72207 c 2.6575,-1.49714 4.94113,-2.72208 5.07472,-2.72208 0.1336,0 0.24291,1.3745 0.24291,3.05445 0,3.15867 1.24323,10.1504 2.08436,11.72205 0.67899,1.26871 0.53879,1.17193 -2.84265,-1.96219 z m -142.051691,0.81104 c -0.834111,-0.88877 -2.150576,-1.88972 -2.925476,-2.22433 l -1.408915,-0.60838 1.846662,-3.58991 c 1.015664,-1.97445 2.445872,-4.30888 3.178242,-5.18762 l 1.331575,-1.59772 -0.134195,4.9729 c -0.07381,2.73511 -0.187554,6.07048 -0.252761,7.41196 l -0.118566,2.43904 -1.516566,-1.61594 z m 49.913079,-2.69604 c 0.504713,-1.97958 0.961149,-5.46485 1.014304,-7.74505 l 0.09664,-4.14581 3.935388,2.12372 c 2.164463,1.16805 4.408147,2.4796 4.985964,2.91456 1.034571,0.77879 1.018854,0.81183 -1.031589,2.16875 -1.145189,0.75785 -3.845314,2.93157 -6.000268,4.8305 l -3.918104,3.45258 0.917664,-3.59925 z m 23.772082,-3.12779 -5.6166,-3.30091 2.26583,-2.08857 c 1.24621,-1.14871 3.43106,-3.58313 4.85522,-5.40982 1.42416,-1.82668 2.71919,-3.477639 2.87785,-3.668799 0.15865,-0.19115 0.31624,2.652409 0.3502,6.319029 0.034,3.66662 0.30552,7.68409 0.60348,8.92772 0.29796,1.24363 0.48299,2.31989 0.41118,2.3917 -0.0718,0.0718 -2.65803,-1.35485 -5.74716,-3.17035 z m 41.92644,0.91874 c 0.28811,-1.04264 0.66787,-4.91466 0.84392,-8.60449 l 0.32007,-6.708769 2.67019,3.505069 c 1.4686,1.92779 3.57283,4.32056 4.67607,5.31727 1.10325,0.99671 2.0059,1.90793 2.0059,2.02492 0,0.20103 -10.53449,6.36171 -10.87823,6.36171 -0.089,0 0.074,-0.85307 0.36208,-1.89571 z m 65.20767,-3.40492 c -0.34627,-2.91535 -1.15765,-7.12382 -1.80307,-9.35216 -0.83228,-2.873489 -0.99481,-4.051529 -0.55898,-4.051529 1.03045,0 7.46641,3.446579 9.29309,4.976639 l 1.71821,1.43918 -2.04888,2.73198 c -1.12688,1.50258 -2.88776,4.26749 -3.91306,6.14424 -1.0253,1.87675 -1.90774,3.41228 -1.96097,3.41228 -0.0532,0 -0.38008,-2.38528 -0.72634,-5.30063 z m -169.965712,1.87151 c -0.686752,-1.30029 -2.42733,-4.01005 -3.867957,-6.0217 l -2.619322,-3.65755 2.397196,-1.7597 c 2.398434,-1.760619 6.465152,-3.949799 8.441616,-4.544269 1.05044,-0.31595 1.05044,-0.31585 -0.09242,3.10278 -0.628592,1.880309 -1.504282,6.020739 -1.945972,9.200959 -0.441695,3.18022 -0.8619,5.84104 -0.93379,5.91293 -0.0719,0.0719 -0.692601,-0.93316 -1.379347,-2.23345 z m 70.074892,1.81821 c -0.11038,-0.36517 -0.34931,-1.11468 -0.53097,-1.66557 -0.18165,-0.5509 -0.32358,-4.5501 -0.3154,-8.8871 l 0.0149,-7.885459 4.43747,-8.60071 4.43746,-8.6007 -10e-4,11.42154 -0.001,11.421529 -1.55478,3.5745 c -1.49893,3.4461 -4.87901,9.01644 -5.82652,9.60204 -0.25263,0.15613 -0.54964,-0.0149 -0.66002,-0.38007 z m 29.87294,-2.74483 c -1.2374,-1.91392 -2.89736,-4.95851 -3.68879,-6.76575 l -1.43896,-3.28589 -0.01,-11.438589 -0.01,-11.43858 3.84435,7.50688 c 2.11439,4.12878 4.07511,7.79749 4.35715,8.15269 1.36693,1.72149 1.08561,18.859089 -0.33286,20.277569 -0.29169,0.29169 -1.32959,-0.85566 -2.72136,-3.00833 z m 43.01629,0.42888 c -1.03218,-1.35348 -3.24872,-3.76957 -4.92563,-5.36907 -1.67692,-1.59951 -3.04894,-2.99469 -3.04894,-3.10042 0,-0.75378 11.41412,-6.183849 11.9249,-5.673059 0.15074,0.15074 0.0179,1.22537 -0.29515,2.38805 -0.31308,1.162689 -0.84132,4.836789 -1.17387,8.164679 l -0.60463,6.0507 -1.87668,-2.46088 z M 69.517694,109.7006 c -0.03956,-3.86654 -1.001384,-10.573269 -1.802697,-12.570009 -0.325147,-0.8102 -0.207497,-0.89241 0.835461,-0.58379 1.481806,0.43847 7.700248,3.44291 9.881616,4.774279 l 1.590413,0.9707 -3.886079,3.95717 c -2.137347,2.17645 -4.491614,4.75337 -5.231714,5.7265 l -1.345629,1.76933 -0.04137,-4.04418 z m 129.959316,0.20779 c -0.77813,-2.59717 -3.58958,-8.63036 -5.32322,-11.423269 l -1.31351,-2.1161 2.15781,-0.28484 c 2.83107,-0.37372 6.09121,-0.50828 9.33115,-0.38515 l 2.62364,0.0997 -2.25042,4.230329 c -1.23772,2.32668 -2.6616,5.8495 -3.16417,7.82848 -0.50256,1.97898 -1.03216,3.71656 -1.17689,3.86128 -0.14472,0.14472 -0.5427,-0.66998 -0.88439,-1.81045 z M 56.261743,107.79675 c -0.475504,-2.01129 -1.875932,-5.63124 -3.11206,-8.044329 -1.812913,-3.53906 -2.102056,-4.44326 -1.495324,-4.67608 1.789427,-0.68667 12.802012,-0.0573 12.802012,0.73158 0,0.20562 -0.786076,1.67927 -1.746836,3.27476 -0.96076,1.595509 -2.450063,4.637239 -3.309562,6.759419 -0.859504,2.12218 -1.722693,4.25294 -1.918198,4.73502 -0.241064,0.59441 -0.633738,-0.30047 -1.220032,-2.78037 z m 35.617471,-3.29239 c -2.570893,-1.57368 -4.661005,-2.98193 -4.644697,-3.12944 0.01631,-0.1475 1.628221,-1.29187 3.582019,-2.543039 1.953797,-1.25117 4.67027,-3.45553 6.036605,-4.89858 1.366339,-1.44305 2.484249,-2.54198 2.484249,-2.44206 0,0.0999 -0.35884,1.58237 -0.79743,3.29434 -0.43858,1.71197 -1.064946,5.242819 -1.391912,7.846349 l -0.594489,4.73367 -4.674345,-2.86124 z m 7.643296,-1.88107 c 0.67449,-9.749559 5.71789,-24.377499 13.33344,-38.672429 4.35791,-8.18013 5.075,-9.20269 6.20264,-8.84479 0.53377,0.16941 1.77449,0.086 2.75717,-0.18531 2.03914,-0.56303 2.04372,-0.55156 1.31433,3.29449 -0.2598,1.36991 -0.83604,5.62856 -1.28053,9.46367 -0.77228,6.66334 -0.92265,7.20106 -3.38694,12.11201 -5.03992,10.04376 -12.2506,20.719279 -17.12914,25.359969 l -2.12573,2.02209 0.31476,-4.5497 z m 55.99743,0.97841 C 151.34106,99.046391 144.73902,89.100901 140.60842,81.138611 l -3.27812,-6.31903 -0.82448,-7.27613 c -0.45347,-4.00187 -1.0399,-8.41201 -1.30318,-9.8003 -0.26329,-1.38829 -0.4787,-2.69643 -0.4787,-2.90696 0,-0.21053 0.94806,-0.16977 2.10679,0.0906 1.15874,0.26035 2.40173,0.36019 2.76221,0.22186 0.87567,-0.33602 1.97268,1.29609 5.9163,8.80223 8.28215,15.7639 13.84082,32.59585 13.38044,40.516719 l -0.15345,2.64014 -3.21629,-3.50602 z m 5.80322,-0.32497 c -0.29701,-3.19573 -1.30514,-8.467769 -2.13244,-11.151689 -0.15145,-0.49133 0.85988,0.30702 2.24739,1.77411 1.38751,1.46709 4.23654,3.78856 6.33118,5.15881 l 3.80843,2.491389 -4.65142,2.67025 c -2.55827,1.46863 -4.78936,2.67708 -4.95796,2.68544 -0.1686,0.008 -0.45893,-1.62438 -0.64518,-3.62831 z m 12.6367,-5.835039 c -0.27092,-2.00135 -2.18968,-8.09964 -3.55932,-11.31242 -0.23369,-0.54818 1.42541,0.0675 4.97055,1.84464 2.92674,1.4671 6.46641,2.96094 7.86596,3.31963 1.39953,0.35869 2.53758,0.77978 2.52898,0.93574 -0.0356,0.64508 -10.4235,7.61364 -11.34954,7.61364 -0.0724,0 -0.27785,-1.08055 -0.45663,-2.40123 z m -96.049838,-1.68592 -5.503427,-3.56404 3.986861,-1.38295 c 2.192772,-0.76062 5.749868,-2.308 7.904656,-3.43863 2.154788,-1.13062 3.91773,-2.02844 3.917644,-1.99514 -8.1e-5,0.0333 -0.769521,2.22164 -1.709858,4.86299 -0.940341,2.64136 -1.870209,5.76927 -2.066371,6.95093 -0.196168,1.18166 -0.507282,2.14451 -0.691373,2.13968 -0.184085,-0.005 -2.811248,-1.61262 -5.838132,-3.57284 z m 8.283797,2.54952 c 0,-2.01006 1.58327,-7.24139 3.383616,-11.17991 1.521521,-3.32856 2.1568,-4.14404 4.379626,-5.62196 1.42998,-0.95076 4.824989,-3.46916 7.544459,-5.59644 2.71947,-2.12727 5.03819,-3.86777 5.1527,-3.86777 0.11451,0 -0.77861,2.22567 -1.98472,4.94594 -1.2061,2.72027 -2.47595,5.89064 -2.82189,7.04528 -1.17797,3.93175 -8.036074,11.09026 -13.644861,14.24258 l -2.00893,1.12908 0,-1.0968 z m 82.352091,-1.05454 c -3.98382,-2.56737 -9.46533,-8.12817 -10.95156,-11.10998 -0.8924,-1.79041 -2.73553,-6.08748 -6.12861,-14.28822 -0.10625,-0.2568 1.19775,0.69064 2.89776,2.1054 1.70002,1.41477 5.338,4.17661 8.0844,6.13743 l 4.99345,3.56512 2.11723,5.31556 c 1.83965,4.61869 3.20863,10.36134 2.47002,10.36134 -0.13464,0 -1.70185,-0.93899 -3.48269,-2.08665 z m -99.992798,-8.79944 c -1.260307,-1.43541 -5.613307,-9.19667 -5.613307,-10.00834 0,-0.10476 2.217978,-0.319 4.92884,-0.47609 2.765903,-0.16028 6.361277,-0.73818 8.193037,-1.31689 1.795305,-0.5672 3.349659,-0.9458 3.454125,-0.84134 0.104462,0.10446 -0.992051,1.69397 -2.436697,3.53224 -1.44464,1.83828 -3.597557,5.04609 -4.784255,7.12847 l -2.157629,3.78616 -1.584114,-1.80421 z m 5.967076,-1.58796 c 5.111763,-9.59065 18.505095,-22.99952 34.133112,-34.17273 l 4.00793,-2.86545 0.96825,1.62847 c 0.53254,0.89567 1.38698,1.96972 1.89875,2.38677 0.88532,0.72147 0.74939,1.07329 -2.79977,7.24626 -2.05165,3.56839 -3.79972,6.6552 -3.88459,6.85957 -0.27629,0.66528 -7.62091,6.38604 -12.53961,9.76716 -7.718305,5.30556 -16.809432,10.12702 -22.174123,11.76 -1.187441,0.36145 -1.184984,0.34502 0.390051,-2.61005 z m 107.397252,1.8164 c -7.21997,-2.7766 -18.1742,-9.33247 -26.8185,-16.05029 -5.32483,-4.13813 -5.15198,-3.92542 -9.65681,-11.88377 l -3.38812,-5.98554 2.15795,-2.24797 2.15795,-2.24797 3.40082,2.42 c 10.65124,7.57936 22.79101,18.6601 28.68164,26.17955 3.20218,4.08761 7.27512,10.89092 6.49102,10.84238 -0.23404,-0.0145 -1.59572,-0.47636 -3.02595,-1.02639 z m 4.3889,-1.85402 c -0.85618,-1.59871 -2.74627,-4.47743 -4.2002,-6.39714 -1.45392,-1.91972 -2.9293,-3.87059 -3.27861,-4.33527 -0.5311,-0.70654 -0.0344,-0.64342 3.03314,0.38548 2.42735,0.81416 5.33555,1.32226 8.59707,1.50203 2.71086,0.14942 4.92392,0.4092 4.91791,0.57729 -0.0484,1.35348 -6.3396,11.16528 -7.16311,11.17166 -0.19223,10e-4 -1.05001,-1.30534 -1.9062,-2.90405 z M 64.934944,74.604671 c 1.362387,-1.9133 6.279994,-6.0778 11.653957,-9.86922 3.173712,-2.23911 4.367938,-2.77225 7.330069,-3.27238 1.94626,-0.32862 5.798697,-1.15031 8.560971,-1.82599 2.762278,-0.67569 5.099772,-1.15107 5.194441,-1.0564 0.09466,0.0947 -0.914211,1.05288 -2.241945,2.12938 -1.327738,1.07649 -4.697371,4.16779 -7.488076,6.86955 -4.933485,4.77626 -5.20531,4.95629 -9.815388,6.50081 -3.414235,1.14387 -6.087622,1.66883 -9.550939,1.87545 l -4.809552,0.28694 1.166462,-1.63814 z m 119.582916,0.72949 c -6.16728,-1.35996 -8.60229,-2.62971 -12.76098,-6.65429 -2.15668,-2.08713 -5.57452,-5.17633 -7.59518,-6.86488 -2.02066,-1.68854 -3.58326,-3.16074 -3.47246,-3.27155 0.11081,-0.11081 2.44654,0.36452 5.1905,1.05628 2.74396,0.69176 6.58142,1.52894 8.52768,1.86041 2.8821,0.49083 4.21557,1.06877 7.18712,3.11494 4.66391,3.21151 10.78991,8.43397 11.92471,10.16589 l 0.8796,1.34243 -3.42393,-0.0402 c -1.88316,-0.0221 -4.78884,-0.34117 -6.45706,-0.70904 z m -122.844484,-1.0201 c -0.534872,-1.8077 -0.829303,-11.10352 -0.372519,-11.76107 0.351282,-0.50568 1.283763,-0.52195 4.453902,-0.0777 2.224601,0.31175 5.578628,0.40915 7.534078,0.21878 l 3.52449,-0.34312 -3.271729,2.40286 c -1.799446,1.32158 -5.138626,4.24077 -7.420396,6.48708 -3.590096,3.5343 -4.188953,3.94808 -4.447826,3.07316 z m 131.691114,-1.96984 c -1.5292,-1.63948 -4.4865,-4.33591 -6.57178,-5.99205 -2.08528,-1.65615 -4.0189,-3.22708 -4.29694,-3.49097 -0.31991,-0.30363 0.70094,-0.35878 2.78037,-0.15023 1.80724,0.18126 4.9915,0.0903 7.07611,-0.20224 2.45501,-0.34446 3.96339,-0.35864 4.28177,-0.0402 0.63479,0.63478 0.63008,11.10208 -0.005,12.09834 -0.39301,0.6161 -1.00506,0.19934 -3.26409,-2.2226 z m -128.108565,-11.83 -1.4753,-0.35478 2.739105,-2.11198 c 8.103074,-6.24784 21.881633,-11.16029 37.93776,-13.52589 2.95507,-0.43538 6.06465,-0.7916 6.91018,-0.7916 1.5141,0 1.52991,0.0268 1.04691,1.77612 -0.26973,0.97686 -0.37572,1.96168 -0.23556,2.18848 0.14017,0.2268 -2.21073,2.15458 -5.22421,4.28397 -5.14791,3.63759 -5.82634,3.96056 -11.224327,5.34336 -3.159887,0.80946 -7.906355,1.84934 -10.547708,2.31085 -5.203576,0.90919 -17.541994,1.45498 -19.92685,0.88147 z m 114.712235,0.0691 c -5.16321,-0.62282 -12.40501,-1.98872 -17.38008,-3.27812 -5.31556,-1.37763 -6.14209,-1.76564 -10.86872,-5.1022 -2.81361,-1.98615 -5.14226,-3.62453 -5.17478,-3.64086 -0.0325,-0.0163 -0.17844,-1.13912 -0.32427,-2.4951 l -0.26517,-2.46542 3.35742,0.33375 c 7.64671,0.76014 18.42476,3.03882 25.477,5.38632 5.06194,1.68499 12.99863,5.6866 16.55285,8.34582 l 3.28589,2.45846 -1.51657,0.33608 c -1.59105,0.35258 -10.54139,0.43517 -13.14357,0.12127 z M 62.21012,58.272581 c 0.641133,-2.06958 2.843591,-6.15655 4.662323,-8.6516 1.411195,-1.93597 1.875947,-2.28933 2.214748,-1.68392 0.361286,0.64558 2.75696,1.7287 5.98256,2.70481 0.44768,0.13548 -0.687004,0.98848 -2.783814,2.09276 -1.946735,1.02524 -5.090086,2.9486 -6.985222,4.27414 -2.959893,2.07028 -3.395632,2.24846 -3.090595,1.26381 z m 130.13203,-1.80662 c -1.52299,-1.02437 -4.3603,-2.70239 -6.30514,-3.72895 -2.1578,-1.13895 -3.24152,-1.96234 -2.78037,-2.11245 0.41563,-0.1353 1.66564,-0.51953 2.77778,-0.85384 1.11215,-0.33431 2.38669,-0.92524 2.83231,-1.31318 0.71342,-0.62107 0.9637,-0.47343 2.09472,1.23566 1.56226,2.36072 4.55708,8.22795 4.32055,8.46448 -0.0939,0.0939 -1.41686,-0.66735 -2.93985,-1.69172 z m -74.60976,-3.60361 c -2.83059,-1.20443 -4.39123,-5.3857 -3.00833,-8.05992 0.67375,-1.30289 1.11908,-1.57798 2.55456,-1.57798 1.90592,0 2.78518,1.01741 2.78518,3.22282 0,1.50647 0.93235,2.24774 1.59141,1.26526 0.73087,-1.08953 0.083,-4.00217 -1.19225,-5.35967 -1.26575,-1.34742 -2.11338,-1.35763 -8.23476,-0.0992 -1.9579,0.4025 -8.23005,0.64029 -17.693267,0.67079 -13.734058,0.0443 -19.462599,-0.28816 -19.462599,-1.12942 0,-0.72125 5.484965,-3.60749 9.270623,-4.87829 5.423028,-1.82045 10.350316,-2.09915 18.295003,-1.03479 3.60641,0.48316 7.58079,1.23396 8.83196,1.66845 1.25137,0.43456 4.20857,0.82777 6.57284,0.87398 5.52406,0.10797 7.84284,1.12237 9.15137,4.00346 1.14983,2.53166 1.22362,5.75321 0.16633,7.2627 -1.63117,2.32883 -7.25509,4.18155 -9.62807,3.17183 z m 17.81922,-0.26795 c -1.07399,-0.38287 -2.60951,-1.32539 -3.41228,-2.09448 -1.23307,-1.18136 -1.45945,-1.79554 -1.45879,-3.95778 9.7e-4,-3.14277 1.25374,-5.76669 3.32325,-6.96053 0.87771,-0.50632 3.51926,-1.11397 6.06626,-1.39546 6.14463,-0.6791 10.53839,-1.34682 17.37415,-2.64035 5.09016,-0.96322 6.30497,-1.02864 10.11045,-0.5445 2.37884,0.30263 5.58116,1.02236 7.11627,1.59938 3.29409,1.2382 8.18056,4.09712 8.4525,4.9453 0.35053,1.09333 -4.4336,1.42668 -19.58473,1.36464 -9.8284,-0.0402 -15.77468,-0.27164 -17.44051,-0.67869 -7.05433,-1.72374 -8.79709,-1.06763 -9.23371,3.47627 -0.2321,2.41552 -0.16513,2.65486 0.69706,2.49133 0.67504,-0.12803 1.00283,-0.69624 1.1215,-1.94406 0.21452,-2.25553 0.87877,-3.03102 2.59624,-3.03102 4.06423,0 4.08982,7.24574 0.033,9.3436 -1.80453,0.93316 -3.19905,0.93954 -5.76066,0.0263 z m -62.470845,-4.00888 c -0.956347,-0.34555 -1.794816,-0.84008 -1.863269,-1.09896 -0.06845,-0.25888 1.330423,-1.16591 3.108612,-2.01561 3.005733,-1.43628 3.474443,-1.51809 6.665728,-1.16338 1.887963,0.20984 5.366278,0.40532 7.729594,0.43439 l 4.296937,0.0529 -4.107382,1.21495 c -2.259061,0.66823 -5.330108,1.67969 -6.824547,2.24769 -3.030999,1.15202 -6.386938,1.27426 -9.005673,0.32805 z m 102.843215,-0.39668 c -1.39018,-0.54915 -4.34749,-1.53745 -6.57178,-2.19623 l -4.04418,-1.19778 4.5497,-0.086 c 2.50233,-0.0473 6.01103,-0.23002 7.7971,-0.40604 2.9274,-0.28852 3.55936,-0.17061 6.41297,1.19651 1.74106,0.83411 3.1062,1.74405 3.03365,2.02209 -0.21664,0.83024 -3.41943,1.71386 -6.12224,1.68908 -1.39018,-0.0128 -3.66503,-0.47249 -5.05522,-1.02163 z M 71.449819,44.602431 c 1.140048,-1.19494 1.99888,-1.68465 2.653991,-1.51334 0.532689,0.1393 0.968524,0.33666 0.968524,0.43856 0,0.10191 -1.194295,0.78291 -2.65399,1.51334 l -2.653991,1.32804 1.685466,-1.7666 z m 113.952701,0.1522 c -2.41534,-1.09637 -2.56205,-1.30411 -1.17679,-1.66636 0.63532,-0.16614 1.45551,0.25092 2.36942,1.20484 1.64502,1.71704 1.60633,1.73201 -1.19263,0.46152 z"
      />
</svg>
