<?xml version="1.0" encoding="iso-8859-1"?>
<!-- Generator: Adobe Illustrator 12.0.0, SVG Export Plug-In . SVG Version: 6.00 Build 51448)  -->
<!DOCTYPE svg PUBLIC "-//W3C//DTD SVG 1.1//EN" "http://www.w3.org/Graphics/SVG/1.1/DTD/svg11.dtd" [
	<!ENTITY ns_svg "http://www.w3.org/2000/svg">
	<!ENTITY ns_xlink "http://www.w3.org/1999/xlink">
	<!ENTITY st0 "fill-rule:evenodd;clip-rule:evenodd;">
]>
<svg  version="1.1" id="Layer_1" xmlns="&ns_svg;" xmlns:xlink="&ns_xlink;" 
	 viewBox="0 0 404.862 404.863" style="overflow:visible;enable-background:new 0 0 404.862 404.863;" xml:space="preserve">
<g id="Layer_1">
	<g>
		<g>
			<g>
				<g>
					<path style="&st0;" d="M202.432,0.5C90.907,0.5,0.5,90.908,0.5,202.432c0,111.523,90.407,201.932,201.932,201.932
						c111.523,0,201.931-90.408,201.931-201.932C404.362,90.908,313.955,0.5,202.432,0.5z M323.405,270.876
						c0.919,2.102,1.711,13.375-0.907,17.254c4.218,5.164,11.142,7.625,17.253,10.896c-28.932,38.952-77.306,74.263-146.2,70.83
						c-52.425-2.612-87.579-26.514-115.325-55.393c-0.49-11.689,0.309-22.09,4.54-29.059c-2.155-5.161-2.379-12.28,0.908-16.346
						c-8.846,0.977-11.765-3.975-15.437-8.173c-7.033,2.142-13.653,9.226-19.07,9.989C18.62,208.329,40.03,132.399,77.317,90.169
						c16.13-18.269,37.215-33.679,64.473-44.496c8.536-3.387,20.798-9.147,28.15-8.173c9.39,1.244,15.255,11,20.886,18.162
						c5.747,1.821,11.432,3.703,12.713,9.989c1.274-5.052,6.508-9.227,15.438-9.081c1.579-5.988,0.682-14.453,0.907-21.794
						c98.785,11.014,175.681,104.323,142.568,220.662C351.316,262.464,335.427,264.736,323.405,270.876z"/>
				</g>
				<g>
					<path style="&st0;" d="M202.432,0.5C90.907,0.5,0.5,90.908,0.5,202.432c0,111.523,90.407,201.932,201.932,201.932
						c111.523,0,201.931-90.408,201.931-201.932C404.362,90.908,313.955,0.5,202.432,0.5z M323.405,270.876
						c0.919,2.102,1.711,13.375-0.907,17.254c4.218,5.164,11.142,7.625,17.253,10.896c-28.932,38.952-77.306,74.263-146.2,70.83
						c-52.425-2.612-87.579-26.514-115.325-55.393c-0.49-11.689,0.309-22.09,4.54-29.059c-2.155-5.161-2.379-12.28,0.908-16.346
						c-8.846,0.977-11.765-3.975-15.437-8.173c-7.033,2.142-13.653,9.226-19.07,9.989C18.62,208.329,40.03,132.399,77.317,90.169
						c16.13-18.269,37.215-33.679,64.473-44.496c8.536-3.387,20.798-9.147,28.15-8.173c9.39,1.244,15.255,11,20.886,18.162
						c5.747,1.821,11.432,3.703,12.713,9.989c1.274-5.052,6.508-9.227,15.438-9.081c1.579-5.988,0.682-14.453,0.907-21.794
						c98.785,11.014,175.681,104.323,142.568,220.662C351.316,262.464,335.427,264.736,323.405,270.876z"/>
				</g>
				<g>
					<path style="&st0;" d="M202.432,0.5C90.907,0.5,0.5,90.908,0.5,202.432c0,111.523,90.407,201.932,201.932,201.932
						c111.523,0,201.931-90.408,201.931-201.932C404.362,90.908,313.955,0.5,202.432,0.5z M323.405,270.876
						c0.919,2.102,1.711,13.375-0.907,17.254c4.218,5.164,11.142,7.625,17.253,10.896c-28.932,38.952-77.306,74.263-146.2,70.83
						c-52.425-2.612-87.579-26.514-115.325-55.393c-0.49-11.689,0.309-22.09,4.54-29.059c-2.155-5.161-2.379-12.28,0.908-16.346
						c-8.846,0.977-11.765-3.975-15.437-8.173c-7.033,2.142-13.653,9.226-19.07,9.989C18.62,208.329,40.03,132.399,77.317,90.169
						c16.13-18.269,37.215-33.679,64.473-44.496c8.536-3.387,20.798-9.147,28.15-8.173c9.39,1.244,15.255,11,20.886,18.162
						c5.747,1.821,11.432,3.703,12.713,9.989c1.274-5.052,6.508-9.227,15.438-9.081c1.579-5.988,0.682-14.453,0.907-21.794
						c98.785,11.014,175.681,104.323,142.568,220.662C351.316,262.464,335.427,264.736,323.405,270.876z"/>
				</g>
			</g>
			<path style="&st0;" d="M288.898,64.743c-12.186,5.295-41.839,4.522-59.024,1.816c-7.644-1.203-17.535-2.876-13.621,9.081
				c5.343,0.802,0.751-8.329,5.448-8.172c21.029,9.087-12.522,25.334-16.346,8.172c-2.688-12.067,7.565-13.849,19.07-15.437
				C245.324,57.317,276.253,49.293,288.898,64.743z"/>
			<path style="&st0;" d="M199,63.835c1.607,4.188,3.955,6.598,2.724,11.805c-3.985,16.862-35.05,2.016-15.438-8.172
				c3.163,0.772,1.941,5.929,3.632,8.172c4.679-1.483,1.617-9.666-1.816-10.896c-20.564,3.016-49.207,6.262-69.922,0.908
				C135.842,48.938,176.229,57.346,199,63.835z"/>
			<path style="&st0;" d="M290.715,67.467c2.852-0.429,2.399,2.444,4.541,2.724c-1.554,2.648-3.306-2.057-6.357-0.908
				C289.123,68.297,290.704,68.667,290.715,67.467z"/>
			<path style="&st0;" d="M178.114,68.375c-4.196,22-44.829,27.899-75.37,27.242c11.737-17.389,45.054-22.941,73.554-27.242
				C176.903,68.375,177.508,68.375,178.114,68.375z"/>
			<path style="&st0;" d="M229.874,68.375c13.954,1.184,30.23,4.778,43.588,9.081c13.005,4.189,25.977,8.853,31.782,18.162
				c-32.205,1.028-57.548-4.806-74.462-19.07C231.063,73.24,230.638,70.638,229.874,68.375z"/>
			<path style="&st0;" d="M146.331,70.191c-10.439,2.241-23.247,11.559-34.507,4.541C119.1,67.137,132.069,70.8,146.331,70.191z"/>
			<path style="&st0;" d="M295.256,75.64c-12.978,5.529-22.385-3.668-34.508-4.54C273.148,69.944,289.671,66.954,295.256,75.64z"/>
			<path style="&st0;" d="M107.284,74.732c2.902,2.244,5.584,4.707,10.897,4.54c-5.114,5.783-14.457,7.337-19.069,13.621
				C97.424,86.048,104.65,80.28,107.284,74.732z"/>
			<path style="&st0;" d="M307.969,91.985c-5.671-4.924-13.822-7.366-19.07-12.713c4.063-0.175,7.487-0.988,9.081-3.632
				C303.207,79.19,305.374,85.802,307.969,91.985z"/>
			<path style="&st0;" d="M183.562,85.629c-12.389,28.777-38.44,43.892-68.105,55.393c13.559-27.305,37.459-44.268,60.841-61.75
				C180.028,80.082,179.444,85.207,183.562,85.629z"/>
			<path style="&st0;" d="M291.623,141.021c-29-11.258-54.507-26.009-67.197-53.577c0.586-3.954,4.722-4.358,5.448-8.173
				C254.379,95.933,277.799,113.68,291.623,141.021z"/>
			<path style="&st0;" d="M204.448,193.689c-14.103-25.756-12.292-74.388-7.265-108.969c13.634-12.682,15.392,12.297,16.345,30.875
				C214.983,143.94,211.045,176.744,204.448,193.689z"/>
			<path style="&st0;" d="M212.62,85.629c1.719,1.611,5.998,0.661,9.081,0.908c12.15,24.174,26.557,46.089,29.059,79.911
				c-2.572,1.673-7.065-4.563-9.989-8.172c-14.136-17.451-26.704-38.656-28.15-69.922C212.62,87.445,212.62,86.537,212.62,85.629z"
				/>
			<path style="&st0;" d="M194.459,86.537c-1.047,38.001-18.836,64.101-38.139,80.819c2.983-33.945,16.199-57.658,29.966-80.819
				C189.011,86.537,191.735,86.537,194.459,86.537z"/>
			<path style="&st0;" d="M154.504,91.985c-15.741,11.501-24.51,29.975-53.577,28.15C111.547,103.514,130.563,95.287,154.504,91.985
				z"/>
			<path style="&st0;" d="M253.484,92.893c21.82,1.187,42.813,11.065,52.668,27.243C277.676,121.976,269.013,104.001,253.484,92.893
				z"/>
			<path style="&st0;" d="M96.387,97.434c7.475,1.309,15.661,2.532,23.61,0.908c-7.547,6.376-15.753,12.094-21.794,19.978
				C95.256,112.958,95.345,104.408,96.387,97.434z"/>
			<path style="&st0;" d="M308.877,97.434c3.318,3.74,1.9,15.706,0.907,20.886c-6.478-7.143-13.931-13.311-21.793-19.069
				C293.017,98.343,303.159,100.025,308.877,97.434z"/>
			<path style="&st0;" d="M123.629,119.228c2.322-0.04,1.107,0.675,0.908,1.816c-5.417,6.086-10.15,12.854-13.621,20.886
				c-5.953-4.338-8.973-11.609-11.805-19.069C108.749,123.114,117.947,122.929,123.629,119.228z"/>
			<path style="&st0;" d="M281.634,120.136c5.915,0.15,15.705,4.266,26.335,2.724c-1.7,8.288-7.116,12.862-10.897,19.069
				C292.017,134.574,288.449,125.731,281.634,120.136z"/>
			<path style="&st0;" d="M189.011,124.676c3.651,19.122,1.72,45.109-9.989,55.393C169.426,158.946,182.813,138.91,189.011,124.676z
				"/>
			<path style="&st0;" d="M217.161,124.676c4.361,8.655,8.672,17.359,13.621,25.426c-0.259,10.032,0.72,21.303-0.908,29.966
				C215.07,170.308,216.211,148.929,217.161,124.676z"/>
			<path style="&st0;" d="M137.25,134.665c2.566,4.225-5.911,12.749-4.541,21.794c-7.102-2.584-12.115-7.257-18.162-10.897
				C122.495,142.309,131.337,139.951,137.25,134.665z"/>
			<path style="&st0;" d="M268.921,134.665c7.176,4.025,13.82,8.58,23.61,9.989c-4.026,6.265-11.41,9.173-18.161,12.713
				C274.83,147.523,270.39,142.58,268.921,134.665z"/>
			<path style="&st0;" d="M155.412,144.654c0.688,6.147-4.029,14.729-2.724,24.518c-5.447-2.726-10.371-5.974-15.437-9.081
				C143.607,155.248,151.36,151.802,155.412,144.654z"/>
			<path style="&st0;" d="M101.835,151.01c-4.979,6.826-8.536,15.074-11.805,23.61c-2.105-9.397-5.926-17.078-9.989-24.518
				C87.019,148.507,95.662,149.22,101.835,151.01z"/>
			<path style="&st0;" d="M326.13,151.01c-4.027,7.475-8.118,14.886-9.989,24.518c-3.938-7.564-6.56-16.446-11.805-22.702
				C308.748,149.368,318.934,151.684,326.13,151.01z"/>
			<path style="&st0;" d="M106.376,151.918c7.574,2.112,13.133,6.239,19.978,9.081c-5.675,5.222-11.733,10.061-15.438,17.253
				C108.392,170.485,109.412,159.173,106.376,151.918z"/>
			<path style="&st0;" d="M330.67,153.734c5.431,0.334,17.529,4.462,18.162,9.081c0.511,3.731-12.667,13.167-11.806,19.07
				C334.723,172.686,335.01,160.897,330.67,153.734z"/>
			<path style="&st0;" d="M77.317,153.734c14.323,15.306,8.644,36.895,4.541,59.024C72.58,197.417,69.162,173.211,77.317,153.734z"
				/>
			<path style="&st0;" d="M298.888,153.734c-1.082,8.604-3.256,16.117-2.725,26.334c-4.951-6.247-9.387-13.012-16.345-17.253
				C285.77,159.383,291.008,155.237,298.888,153.734z"/>
			<path style="&st0;" d="M172.665,154.643c2.201,8.09-0.368,20.952,2.725,28.15c-6.114-2.967-11.324-6.838-17.253-9.989
				C163.034,166.805,169.275,162.149,172.665,154.643z"/>
			<path style="&st0;" d="M233.506,154.643c4.913,6.287,10.036,12.363,15.438,18.161c-6.309,2.469-10.944,6.612-17.253,9.081
				C234.623,175.132,233.161,163.983,233.506,154.643z"/>
			<path style="&st0;" d="M327.946,154.643c9.734,19.477,4.321,42.337-2.725,59.933
				C318.899,194.098,315.247,170.605,327.946,154.643z"/>
			<path style="&st0;" d="M102.744,155.55c8.348,28.43,3.043,69.505-11.805,86.267c-2.063-1.569-5.073-2.191-9.081-1.816
				C83.387,206.419,89.715,177.634,102.744,155.55z"/>
			<path style="&st0;" d="M301.612,156.458c15.633,20.084,19.999,51.437,22.701,84.451c-4.315-0.38-6.55,1.32-9.988,1.816
				c-0.511-7.715-8.931-12.263-11.806-20.886C296.329,203.268,300.781,177.571,301.612,156.458z"/>
			<path style="&st0;" d="M126.354,164.631c4.354,23.728-10.522,36.09-19.07,49.944C105.955,192.672,112.74,173.794,126.354,164.631
				z"/>
			<path style="&st0;" d="M130.894,164.631c5.78,1.485,9.042,5.487,14.529,7.265c-4.647,6.552-12.988,9.411-17.253,16.345
				C127.877,182.791,131.748,173.667,130.894,164.631z"/>
			<path style="&st0;" d="M215.345,164.631c2.996,7.9,8.381,13.413,11.805,20.886c-7.766,2.828-13.12,8.068-20.886,10.897
				C211.096,187.625,213.204,176.112,215.345,164.631z"/>
			<path style="&st0;" d="M278.002,188.241c-6.54-4.055-10.852-10.337-18.161-13.621c3.311-4.256,10.13-5.004,13.621-9.081
				C277.204,170.878,274.844,182.318,278.002,188.241z"/>
			<path style="&st0;" d="M51.891,167.355c2.107,4.854,0.312,13.613,0.908,19.978c-1.696,4.007-4.542-5.45-9.081-4.54
				C45.074,176.278,48.963,172.297,51.891,167.355z"/>
			<path style="&st0;" d="M55.523,167.355c15.295,17.033,26.484,41.159,23.61,73.554c-2.411,0.919-5.167,1.494-5.448,4.541
				C62.478,224.953,52.599,199.04,55.523,167.355z"/>
			<path style="&st0;" d="M348.832,168.264c6.978,28.32-6.605,56.814-15.438,78.095c-2.462-0.565-2.261-3.794-5.448-3.633
				C321.504,212.626,336.345,187.631,348.832,168.264z"/>
			<path style="&st0;" d="M147.239,176.436c-4.613,29.046-27.223,63.627-50.853,74.462c-0.749-3.187-2.735-5.136-3.632-8.173
				C107.541,217.254,123.719,193.174,147.239,176.436z"/>
			<path style="&st0;" d="M260.748,199.138c-7.455-4.35-14.404-9.206-23.609-11.805c4.018-4.458,11.339-5.612,15.438-9.989
				C256.796,183.113,257.343,192.555,260.748,199.138z"/>
			<path style="&st0;" d="M258.024,178.252c25.427,15.134,40.087,41.034,55.393,66.29c-1.366,2.569-3.672,4.198-3.633,8.173
				C283.554,236.87,266.392,211.958,258.024,178.252z"/>
			<path style="&st0;" d="M348.832,217.3c0.67-9.324,3.022-24.821,10.896-29.967C365.489,199.517,352.111,208.118,348.832,217.3z"/>
			<path style="&st0;" d="M40.994,188.241c1.405,1.319,1.907,3.542,1.816,6.356C39.564,193.441,40.42,191.635,40.994,188.241z"/>
			<path style="&st0;" d="M128.169,228.196c6.142-16.259,19.621-33.046,39.047-39.047c1.056-0.148,1.616,0.2,1.816,0.908
				C164.025,211.384,143.488,217.181,128.169,228.196z"/>
			<path style="&st0;" d="M231.69,189.149c3.973,6.622,5.805,15.383,11.805,19.978c-9.229-0.462-19.897-7.341-32.69-7.265
				C217.113,196.971,225.57,194.229,231.69,189.149z"/>
			<path style="&st0;" d="M236.23,190.965c20.86,2.146,32.467,21.411,42.68,37.231C262.812,221.289,242.02,211.209,236.23,190.965z"
				/>
			<path style="&st0;" d="M363.361,190.057c3.344-0.836,1.65,4.79,0.908,5.449C362.263,195.393,363.884,191.653,363.361,190.057z"/>
			<path style="&st0;" d="M39.178,196.414c1.467-0.256,1.563,0.858,2.724,0.908c12.014,14.624,20.603,32.671,29.966,49.944
				c-2.56,10.701,10.587,12.432,14.529,6.357c-2.825-5.046-7.277,4.264-10.897-0.908c-1.853-9.002,7.186-10.188,10.897-9.081
				c11.739,3.5,9.053,23.805-5.448,22.702c-4.777-0.364-8.465-6.328-12.713-11.806c-11.879-15.313-31.049-28.006-29.059-55.392
				C39.178,198.23,39.178,197.322,39.178,196.414z"/>
			<path style="&st0;" d="M365.177,197.322c0.986,0.225,0.617,1.806,1.816,1.816c2.905,27.438-17.319,40.361-29.059,55.392
				c-4.11,5.265-6.483,11.946-11.805,12.714c-14.005,2.019-18.844-19.416-7.265-22.702c6.12-1.737,12.997,1.278,11.805,9.081
				c-2.974,4.682-7.783-1.548-9.988,0c-1.382,7.344,17.835,5.933,13.621-5.449C343.79,230.42,352.593,211.979,365.177,197.322z"/>
			<path style="&st0;" d="M193.551,203.679c1.32,0.402-0.092,0.797,0,1.815c-18.152,20.327-41.971,38.096-69.014,50.853
				c-8.647,4.079-18.589,9.75-29.058,6.356c-0.434-10.569,10.847-15.586,18.161-20.886
				C136.246,225.439,161.739,209.953,193.551,203.679z"/>
			<path style="&st0;" d="M207.172,205.494c7.527,8.818,14.43,18.262,24.519,24.519c-5.276,0.782-17.729-1.022-24.519,0.908
				C207.172,222.445,207.172,213.97,207.172,205.494z"/>
			<path style="&st0;" d="M212.62,205.494c29.203,4.753,58.422,21.426,79.911,37.231c7.539,5.545,16.687,10.785,18.161,19.978
				c-8.666,5.981-19.46-0.46-28.15-4.54C256.138,245.765,228.77,227.112,212.62,205.494z"/>
			<path style="&st0;" d="M195.367,232.737c-10.508,14.01-30.553,18.483-54.484,19.069
				C156.219,243.143,169.025,227.399,195.367,232.737z"/>
			<path style="&st0;" d="M265.289,251.807c-22.739,2.154-44.789-4.245-54.484-18.162
				C236.997,228.428,248.232,244.969,265.289,251.807z"/>
			<path style="&st0;" d="M198.091,233.645c2.108,5.156,0.311,14.219,0.908,20.886c-6.534-2.547-15.019-3.142-22.702-4.54
				C183.654,244.634,193.315,241.582,198.091,233.645z"/>
			<path style="&st0;" d="M207.172,235.461c6.561,6.152,14.333,11.093,22.702,15.438c-7.348,1.732-15.714,2.447-22.702,4.54
				C207.172,248.78,207.172,242.12,207.172,235.461z"/>
			<path style="&st0;" d="M196.275,257.255c-20.867,13.337-52.308,16.101-85.359,17.254c-1.419-2.818-2.52-5.955-5.448-7.265
				C125.777,253.051,165.94,248.334,196.275,257.255z"/>
			<path style="&st0;" d="M299.796,267.244c-0.84,3.397-3.704,4.771-4.54,8.172c-33.728-0.175-63.485-4.318-85.359-16.345
				C238.956,248.688,280.204,255.664,299.796,267.244z"/>
			<path style="&st0;" d="M198.091,260.887c2.105,4.252,0.313,12.4,0.908,18.162c-6.805-3.486-12.763-7.82-22.702-8.173
				C182.698,266.683,192.453,265.843,198.091,260.887z"/>
			<path style="&st0;" d="M207.172,261.795c6.393,4.202,14.009,7.18,22.702,9.081c-7.565,2.726-16.142,4.441-21.794,9.081
				C205.975,275.705,207.768,267.557,207.172,261.795z"/>
			<path style="&st0;" d="M94.571,283.589c-1.809-6.047,5.307-3.168,4.541-8.173c-7.975-3.136-11.75,13.698-1.816,14.529
				c10.276,17.572,23.543,32.152,29.966,53.577c-22.485-7.401-28.287-30.963-36.323-50.853c-2.555-6.324-7.459-10.287-6.356-17.254
				c1.975-12.479,22.783-11.985,23.61,0.908C108.66,283.623,99.99,291.139,94.571,283.589z"/>
			<path style="&st0;" d="M279.818,344.43c3.401-14.567,18.942-41.753,29.059-53.576c2.938-3.435,6.138-2.382,6.356-6.356
				c0.24-4.377-4.047-7.635-8.173-9.081c-2.842,5.673,4.535,3.059,4.54,8.173c-3.736,9.429-13.37,2.294-13.621-4.54
				c-0.512-13.913,21.37-15.094,23.61-2.725c1.409,7.781-4.486,10.367-7.265,17.254c-4.37,10.833-5.638,24.284-13.621,34.507
				C295.089,335.274,287.916,339.072,279.818,344.43z"/>
			<path style="&st0;" d="M196.275,280.865c-16.819,13.021-37.653,0.947-53.577-4.541C161.3,270.4,181.891,272.062,196.275,280.865z
				"/>
			<path style="&st0;" d="M262.564,276.324c-15.07,8.336-33.229,16.903-52.668,7.265
				C220.912,271.778,243.101,273.364,262.564,276.324z"/>
			<path style="&st0;" d="M192.643,307.199c-35.734,0.925-58.198-11.421-83.543-20.886c-1.646-2.534,3.129-4.926,1.816-9.989
				C150.699,273.471,174.048,291.892,192.643,307.199z"/>
			<path style="&st0;" d="M294.348,278.141c0.748,3.187,2.404,5.465,2.724,9.081c-24.847,9.704-50.696,23.1-84.451,20.886
				C234.199,292.568,255.82,273.9,294.348,278.141z"/>
			<path style="&st0;" d="M197.183,284.497c2.108,5.156,0.311,14.219,0.908,20.886c-7.247-4.86-13.135-11.08-21.794-14.529
				C182.347,287.822,192.113,288.508,197.183,284.497z"/>
			<path style="&st0;" d="M207.172,285.405c6.422,2.962,13.802,4.964,22.702,5.448c-6.904,5.506-15.846,8.975-20.886,16.346
				C207.434,300.883,207.97,292.478,207.172,285.405z"/>
			<path style="&st0;" d="M160.86,342.614c-28.828-9.009-44.134-31.539-61.749-51.761c2.263-0.514,6.555-3.666,7.265-2.724
				C133.478,297.351,148.712,318.439,160.86,342.614z"/>
			<path style="&st0;" d="M306.152,290.854c-14.92,22.918-33.688,41.984-59.933,53.576c4.68-14.95,21.069-38.825,35.414-48.128
				C287.907,292.233,297.92,288.6,306.152,290.854z"/>
			<path style="&st0;" d="M131.802,299.935c20.703,2.605,42.968,11.515,50.853,29.967
				C159.589,329.657,144.881,313.19,131.802,299.935z"/>
			<path style="&st0;" d="M272.554,299.935c2.322-0.04,1.107,0.675,0.908,1.816c-12.909,13.729-25.979,27.296-49.944,29.966
				C230.411,311.671,252.247,306.567,272.554,299.935z"/>
			<path style="&st0;" d="M236.23,310.831c-6.802,5.306-12.118,12.098-16.346,19.978c-5.595-4.394-8.438-11.538-10.896-19.069
				C218.467,311.835,227.921,311.906,236.23,310.831z"/>
			<path style="&st0;" d="M248.943,326.269c1.997,4.245-7.717,12.166-8.173,19.978c-8.22-1.466-12.494-6.879-18.161-10.896
				C231.878,332.813,241.653,330.783,248.943,326.269z"/>
			<path style="&st0;" d="M139.066,336.258c6.156,0.814,13.822,7.965,21.794,9.988c-4.45,2.921-15.125,2.028-20.886,0.908
				C141.868,344.373,140.704,338.371,139.066,336.258z"/>
			<path style="&st0;" d="M275.277,342.614c1.064,0.146,0.767,1.655,0.908,2.724c-2.019,0.706-3.541,1.908-6.356,1.816
				C271.079,345.074,274.355,345.021,275.277,342.614z"/>
			<path style="&st0;" d="M116.365,67.467c0.024,0.883,1.111,0.705,1.816,0.908c-1.527,1.802-5.211,1.448-6.356,3.632
				C110.443,71.15,114.004,67.589,116.365,67.467z"/>
			<path style="&st0;" d="M167.217,113.779c-4.005,16.882-14.681,34.96-30.875,42.68
				C134.787,134.016,154.099,124.575,167.217,113.779z"/>
			<path style="&st0;" d="M238.955,114.687c13.554,7.637,31.961,18.284,32.69,41.771
				C253.905,149.378,246.534,131.928,238.955,114.687z"/>
			<path style="&st0;" d="M250.76,145.562c4.661,3.217,13.336,10.268,19.069,15.438c-5.762,1.806-9.891,5.244-14.529,8.172
				C253.603,161.485,254.001,151.704,250.76,145.562z"/>
			<path style="&st0;" d="M74.593,151.01c-1.252,6.625-4.385,19.219-5.449,29.058c-3.506-6.786-8.079-12.504-11.805-19.069
				C62.126,156.705,68.337,153.834,74.593,151.01z"/>
			<path style="&st0;" d="M179.022,185.517c4.352-6.544,9.828-11.966,11.805-20.886c4.597,9.932,4.539,24.52,10.897,32.69
				C195.001,196.167,186.926,188.515,179.022,185.517z"/>
			<path style="&st0;" d="M278.91,166.447c7.865,3.939,11.268,12.342,17.253,18.162c0.965,10.235,0.911,21.489,3.633,29.966
				C290.071,204.925,276.864,190.894,278.91,166.447z"/>
			<path style="&st0;" d="M352.464,168.264c3.941,0.613,7.05,9.89,9.989,14.529c-2.152,2.994-6.768,3.524-8.173,7.264
				C351.572,184.896,355.173,173.425,352.464,168.264z"/>
			<path style="&st0;" d="M151.779,176.436c6.655,2.124,11.15,6.406,17.253,9.081c-8.357,3.75-16.922,7.293-23.61,12.713
				C146.096,193.14,150.885,184.328,151.779,176.436z"/>
			<path style="&st0;" d="M43.719,186.425c10.581,0.926,11.344,19.527,14.529,30.875C53.208,207.204,43.953,201.325,43.719,186.425z
				"/>
			<path style="&st0;" d="M173.573,188.241c6.428,4.469,15.376,6.417,19.978,12.713c-11.852,0.861-21.44,3.986-29.966,8.173
				C164.749,203.623,171.912,196.273,173.573,188.241z"/>
			<path style="&st0;" d="M198.091,204.587c2.112,6.666,0.308,17.248,0.908,25.426c-7.429-1.501-16.659-2.637-23.61,0
				C180.511,222.72,192.438,214.373,198.091,204.587z"/>
			<path style="&st0;" d="M197.183,310.831c-2.473,7.214-6.365,13.007-9.989,19.07c-5.683-6.728-9.852-14.97-17.253-19.979
				C172.764,309.349,187.951,311.795,197.183,310.831z"/>
			<path style="&st0;" d="M117.272,318.096c6.207,5.905,21.171,10.911,20.886,26.334
				C126.803,340.046,124.32,326.788,117.272,318.096z"/>
			<path style="&st0;" d="M287.991,318.096c-4.362,8.053-8.707,23.98-20.886,27.242
				C268.058,330.248,281.467,327.615,287.991,318.096z"/>
			<path style="&st0;" d="M154.504,325.36c7.366,1.116,17.514,7.301,28.15,8.173c-4.172,5.514-9.966,9.406-17.254,11.805
				C163.072,337.375,159.322,330.834,154.504,325.36z"/>
			<path style="&st0;" d="M266.197,336.258c0.716,1.666-1.979,7.676-0.908,12.713c-6.604-0.358-14.789,0.865-19.978-0.908
				C252.427,344.281,260.021,340.978,266.197,336.258z"/>
			<path style="&st0;" d="M129.986,341.706c2.353,0.978,3.376,3.283,6.356,3.632C135.396,346.517,128.601,345.867,129.986,341.706z"
				/>
		</g>
	</g>
	<g>
		<g>
			<g>
				<g>
					<path style="&st0;" d="M202.432,0.5C90.907,0.5,0.5,90.908,0.5,202.432c0,111.523,90.407,201.932,201.932,201.932
						c111.523,0,201.931-90.408,201.931-201.932C404.362,90.908,313.955,0.5,202.432,0.5z M323.405,270.876
						c0.919,2.102,1.711,13.375-0.907,17.254c4.218,5.164,11.142,7.625,17.253,10.896c-28.932,38.952-77.306,74.263-146.2,70.83
						c-52.425-2.612-87.579-26.514-115.325-55.393c-0.49-11.689,0.309-22.09,4.54-29.059c-2.155-5.161-2.379-12.28,0.908-16.346
						c-8.846,0.977-11.765-3.975-15.437-8.173c-7.033,2.142-13.653,9.226-19.07,9.989C18.62,208.329,40.03,132.399,77.317,90.169
						c16.13-18.269,37.215-33.679,64.473-44.496c8.536-3.387,20.798-9.147,28.15-8.173c9.39,1.244,15.255,11,20.886,18.162
						c5.747,1.821,11.432,3.703,12.713,9.989c1.274-5.052,6.508-9.227,15.438-9.081c1.579-5.988,0.682-14.453,0.907-21.794
						c98.785,11.014,175.681,104.323,142.568,220.662C351.316,262.464,335.427,264.736,323.405,270.876z"/>
				</g>
			</g>
			<path style="&st0;" d="M288.898,64.743c-12.186,5.295-41.839,4.522-59.024,1.816c-7.644-1.203-17.535-2.876-13.621,9.081
				c5.343,0.802,0.751-8.329,5.448-8.172c21.029,9.087-12.522,25.334-16.346,8.172c-2.688-12.067,7.565-13.849,19.07-15.437
				C245.324,57.317,276.253,49.293,288.898,64.743z"/>
			<path style="&st0;" d="M199,63.835c1.607,4.188,3.955,6.598,2.724,11.805c-3.985,16.862-35.05,2.016-15.438-8.172
				c3.163,0.772,1.941,5.929,3.632,8.172c4.679-1.483,1.617-9.666-1.816-10.896c-20.564,3.016-49.207,6.262-69.922,0.908
				C135.842,48.938,176.229,57.346,199,63.835z"/>
			<path style="&st0;" d="M290.715,67.467c2.852-0.429,2.399,2.444,4.541,2.724c-1.554,2.648-3.306-2.057-6.357-0.908
				C289.123,68.297,290.704,68.667,290.715,67.467z"/>
			<path style="&st0;" d="M178.114,68.375c-4.196,22-44.829,27.899-75.37,27.242c11.737-17.389,45.054-22.941,73.554-27.242
				C176.903,68.375,177.508,68.375,178.114,68.375z"/>
			<path style="&st0;" d="M229.874,68.375c13.954,1.184,30.23,4.778,43.588,9.081c13.005,4.189,25.977,8.853,31.782,18.162
				c-32.205,1.028-57.548-4.806-74.462-19.07C231.063,73.24,230.638,70.638,229.874,68.375z"/>
			<path style="&st0;" d="M146.331,70.191c-10.439,2.241-23.247,11.559-34.507,4.541C119.1,67.137,132.069,70.8,146.331,70.191z"/>
			<path style="&st0;" d="M295.256,75.64c-12.978,5.529-22.385-3.668-34.508-4.54C273.148,69.944,289.671,66.954,295.256,75.64z"/>
			<path style="&st0;" d="M107.284,74.732c2.902,2.244,5.584,4.707,10.897,4.54c-5.114,5.783-14.457,7.337-19.069,13.621
				C97.424,86.048,104.65,80.28,107.284,74.732z"/>
			<path style="&st0;" d="M307.969,91.985c-5.671-4.924-13.822-7.366-19.07-12.713c4.063-0.175,7.487-0.988,9.081-3.632
				C303.207,79.19,305.374,85.802,307.969,91.985z"/>
			<path style="&st0;" d="M183.562,85.629c-12.389,28.777-38.44,43.892-68.105,55.393c13.559-27.305,37.459-44.268,60.841-61.75
				C180.028,80.082,179.444,85.207,183.562,85.629z"/>
			<path style="&st0;" d="M291.623,141.021c-29-11.258-54.507-26.009-67.197-53.577c0.586-3.954,4.722-4.358,5.448-8.173
				C254.379,95.933,277.799,113.68,291.623,141.021z"/>
			<path style="&st0;" d="M204.448,193.689c-14.103-25.756-12.292-74.388-7.265-108.969c13.634-12.682,15.392,12.297,16.345,30.875
				C214.983,143.94,211.045,176.744,204.448,193.689z"/>
			<path style="&st0;" d="M212.62,85.629c1.719,1.611,5.998,0.661,9.081,0.908c12.15,24.174,26.557,46.089,29.059,79.911
				c-2.572,1.673-7.065-4.563-9.989-8.172c-14.136-17.451-26.704-38.656-28.15-69.922C212.62,87.445,212.62,86.537,212.62,85.629z"
				/>
			<path style="&st0;" d="M194.459,86.537c-1.047,38.001-18.836,64.101-38.139,80.819c2.983-33.945,16.199-57.658,29.966-80.819
				C189.011,86.537,191.735,86.537,194.459,86.537z"/>
			<path style="&st0;" d="M154.504,91.985c-15.741,11.501-24.51,29.975-53.577,28.15C111.547,103.514,130.563,95.287,154.504,91.985
				z"/>
			<path style="&st0;" d="M253.484,92.893c21.82,1.187,42.813,11.065,52.668,27.243C277.676,121.976,269.013,104.001,253.484,92.893
				z"/>
			<path style="&st0;" d="M96.387,97.434c7.475,1.309,15.661,2.532,23.61,0.908c-7.547,6.376-15.753,12.094-21.794,19.978
				C95.256,112.958,95.345,104.408,96.387,97.434z"/>
			<path style="&st0;" d="M308.877,97.434c3.318,3.74,1.9,15.706,0.907,20.886c-6.478-7.143-13.931-13.311-21.793-19.069
				C293.017,98.343,303.159,100.025,308.877,97.434z"/>
			<path style="&st0;" d="M123.629,119.228c2.322-0.04,1.107,0.675,0.908,1.816c-5.417,6.086-10.15,12.854-13.621,20.886
				c-5.953-4.338-8.973-11.609-11.805-19.069C108.749,123.114,117.947,122.929,123.629,119.228z"/>
			<path style="&st0;" d="M281.634,120.136c5.915,0.15,15.705,4.266,26.335,2.724c-1.7,8.288-7.116,12.862-10.897,19.069
				C292.017,134.574,288.449,125.731,281.634,120.136z"/>
			<path style="&st0;" d="M189.011,124.676c3.651,19.122,1.72,45.109-9.989,55.393C169.426,158.946,182.813,138.91,189.011,124.676z
				"/>
			<path style="&st0;" d="M217.161,124.676c4.361,8.655,8.672,17.359,13.621,25.426c-0.259,10.032,0.72,21.303-0.908,29.966
				C215.07,170.308,216.211,148.929,217.161,124.676z"/>
			<path style="&st0;" d="M137.25,134.665c2.566,4.225-5.911,12.749-4.541,21.794c-7.102-2.584-12.115-7.257-18.162-10.897
				C122.495,142.309,131.337,139.951,137.25,134.665z"/>
			<path style="&st0;" d="M268.921,134.665c7.176,4.025,13.82,8.58,23.61,9.989c-4.026,6.265-11.41,9.173-18.161,12.713
				C274.83,147.523,270.39,142.58,268.921,134.665z"/>
			<path style="&st0;" d="M155.412,144.654c0.688,6.147-4.029,14.729-2.724,24.518c-5.447-2.726-10.371-5.974-15.437-9.081
				C143.607,155.248,151.36,151.802,155.412,144.654z"/>
			<path style="&st0;" d="M101.835,151.01c-4.979,6.826-8.536,15.074-11.805,23.61c-2.105-9.397-5.926-17.078-9.989-24.518
				C87.019,148.507,95.662,149.22,101.835,151.01z"/>
			<path style="&st0;" d="M326.13,151.01c-4.027,7.475-8.118,14.886-9.989,24.518c-3.938-7.564-6.56-16.446-11.805-22.702
				C308.748,149.368,318.934,151.684,326.13,151.01z"/>
			<path style="&st0;" d="M106.376,151.918c7.574,2.112,13.133,6.239,19.978,9.081c-5.675,5.222-11.733,10.061-15.438,17.253
				C108.392,170.485,109.412,159.173,106.376,151.918z"/>
			<path style="&st0;" d="M330.67,153.734c5.431,0.334,17.529,4.462,18.162,9.081c0.511,3.731-12.667,13.167-11.806,19.07
				C334.723,172.686,335.01,160.897,330.67,153.734z"/>
			<path style="&st0;" d="M77.317,153.734c14.323,15.306,8.644,36.895,4.541,59.024C72.58,197.417,69.162,173.211,77.317,153.734z"
				/>
			<path style="&st0;" d="M298.888,153.734c-1.082,8.604-3.256,16.117-2.725,26.334c-4.951-6.247-9.387-13.012-16.345-17.253
				C285.77,159.383,291.008,155.237,298.888,153.734z"/>
			<path style="&st0;" d="M172.665,154.643c2.201,8.09-0.368,20.952,2.725,28.15c-6.114-2.967-11.324-6.838-17.253-9.989
				C163.034,166.805,169.275,162.149,172.665,154.643z"/>
			<path style="&st0;" d="M233.506,154.643c4.913,6.287,10.036,12.363,15.438,18.161c-6.309,2.469-10.944,6.612-17.253,9.081
				C234.623,175.132,233.161,163.983,233.506,154.643z"/>
			<path style="&st0;" d="M327.946,154.643c9.734,19.477,4.321,42.337-2.725,59.933
				C318.899,194.098,315.247,170.605,327.946,154.643z"/>
			<path style="&st0;" d="M102.744,155.55c8.348,28.43,3.043,69.505-11.805,86.267c-2.063-1.569-5.073-2.191-9.081-1.816
				C83.387,206.419,89.715,177.634,102.744,155.55z"/>
			<path style="&st0;" d="M301.612,156.458c15.633,20.084,19.999,51.437,22.701,84.451c-4.315-0.38-6.55,1.32-9.988,1.816
				c-0.511-7.715-8.931-12.263-11.806-20.886C296.329,203.268,300.781,177.571,301.612,156.458z"/>
			<path style="&st0;" d="M126.354,164.631c4.354,23.728-10.522,36.09-19.07,49.944C105.955,192.672,112.74,173.794,126.354,164.631
				z"/>
			<path style="&st0;" d="M130.894,164.631c5.78,1.485,9.042,5.487,14.529,7.265c-4.647,6.552-12.988,9.411-17.253,16.345
				C127.877,182.791,131.748,173.667,130.894,164.631z"/>
			<path style="&st0;" d="M215.345,164.631c2.996,7.9,8.381,13.413,11.805,20.886c-7.766,2.828-13.12,8.068-20.886,10.897
				C211.096,187.625,213.204,176.112,215.345,164.631z"/>
			<path style="&st0;" d="M278.002,188.241c-6.54-4.055-10.852-10.337-18.161-13.621c3.311-4.256,10.13-5.004,13.621-9.081
				C277.204,170.878,274.844,182.318,278.002,188.241z"/>
			<path style="&st0;" d="M51.891,167.355c2.107,4.854,0.312,13.613,0.908,19.978c-1.696,4.007-4.542-5.45-9.081-4.54
				C45.074,176.278,48.963,172.297,51.891,167.355z"/>
			<path style="&st0;" d="M55.523,167.355c15.295,17.033,26.484,41.159,23.61,73.554c-2.411,0.919-5.167,1.494-5.448,4.541
				C62.478,224.953,52.599,199.04,55.523,167.355z"/>
			<path style="&st0;" d="M348.832,168.264c6.978,28.32-6.605,56.814-15.438,78.095c-2.462-0.565-2.261-3.794-5.448-3.633
				C321.504,212.626,336.345,187.631,348.832,168.264z"/>
			<path style="&st0;" d="M147.239,176.436c-4.613,29.046-27.223,63.627-50.853,74.462c-0.749-3.187-2.735-5.136-3.632-8.173
				C107.541,217.254,123.719,193.174,147.239,176.436z"/>
			<path style="&st0;" d="M260.748,199.138c-7.455-4.35-14.404-9.206-23.609-11.805c4.018-4.458,11.339-5.612,15.438-9.989
				C256.796,183.113,257.343,192.555,260.748,199.138z"/>
			<path style="&st0;" d="M258.024,178.252c25.427,15.134,40.087,41.034,55.393,66.29c-1.366,2.569-3.672,4.198-3.633,8.173
				C283.554,236.87,266.392,211.958,258.024,178.252z"/>
			<path style="&st0;" d="M348.832,217.3c0.67-9.324,3.022-24.821,10.896-29.967C365.489,199.517,352.111,208.118,348.832,217.3z"/>
			<path style="&st0;" d="M40.994,188.241c1.405,1.319,1.907,3.542,1.816,6.356C39.564,193.441,40.42,191.635,40.994,188.241z"/>
			<path style="&st0;" d="M128.169,228.196c6.142-16.259,19.621-33.046,39.047-39.047c1.056-0.148,1.616,0.2,1.816,0.908
				C164.025,211.384,143.488,217.181,128.169,228.196z"/>
			<path style="&st0;" d="M231.69,189.149c3.973,6.622,5.805,15.383,11.805,19.978c-9.229-0.462-19.897-7.341-32.69-7.265
				C217.113,196.971,225.57,194.229,231.69,189.149z"/>
			<path style="&st0;" d="M236.23,190.965c20.86,2.146,32.467,21.411,42.68,37.231C262.812,221.289,242.02,211.209,236.23,190.965z"
				/>
			<path style="&st0;" d="M363.361,190.057c3.344-0.836,1.65,4.79,0.908,5.449C362.263,195.393,363.884,191.653,363.361,190.057z"/>
			<path style="&st0;" d="M39.178,196.414c1.467-0.256,1.563,0.858,2.724,0.908c12.014,14.624,20.603,32.671,29.966,49.944
				c-2.56,10.701,10.587,12.432,14.529,6.357c-2.825-5.046-7.277,4.264-10.897-0.908c-1.853-9.002,7.186-10.188,10.897-9.081
				c11.739,3.5,9.053,23.805-5.448,22.702c-4.777-0.364-8.465-6.328-12.713-11.806c-11.879-15.313-31.049-28.006-29.059-55.392
				C39.178,198.23,39.178,197.322,39.178,196.414z"/>
			<path style="&st0;" d="M365.177,197.322c0.986,0.225,0.617,1.806,1.816,1.816c2.905,27.438-17.319,40.361-29.059,55.392
				c-4.11,5.265-6.483,11.946-11.805,12.714c-14.005,2.019-18.844-19.416-7.265-22.702c6.12-1.737,12.997,1.278,11.805,9.081
				c-2.974,4.682-7.783-1.548-9.988,0c-1.382,7.344,17.835,5.933,13.621-5.449C343.79,230.42,352.593,211.979,365.177,197.322z"/>
			<path style="&st0;" d="M193.551,203.679c1.32,0.402-0.092,0.797,0,1.815c-18.152,20.327-41.971,38.096-69.014,50.853
				c-8.647,4.079-18.589,9.75-29.058,6.356c-0.434-10.569,10.847-15.586,18.161-20.886
				C136.246,225.439,161.739,209.953,193.551,203.679z"/>
			<path style="&st0;" d="M207.172,205.494c7.527,8.818,14.43,18.262,24.519,24.519c-5.276,0.782-17.729-1.022-24.519,0.908
				C207.172,222.445,207.172,213.97,207.172,205.494z"/>
			<path style="&st0;" d="M212.62,205.494c29.203,4.753,58.422,21.426,79.911,37.231c7.539,5.545,16.687,10.785,18.161,19.978
				c-8.666,5.981-19.46-0.46-28.15-4.54C256.138,245.765,228.77,227.112,212.62,205.494z"/>
			<path style="&st0;" d="M195.367,232.737c-10.508,14.01-30.553,18.483-54.484,19.069
				C156.219,243.143,169.025,227.399,195.367,232.737z"/>
			<path style="&st0;" d="M265.289,251.807c-22.739,2.154-44.789-4.245-54.484-18.162
				C236.997,228.428,248.232,244.969,265.289,251.807z"/>
			<path style="&st0;" d="M198.091,233.645c2.108,5.156,0.311,14.219,0.908,20.886c-6.534-2.547-15.019-3.142-22.702-4.54
				C183.654,244.634,193.315,241.582,198.091,233.645z"/>
			<path style="&st0;" d="M207.172,235.461c6.561,6.152,14.333,11.093,22.702,15.438c-7.348,1.732-15.714,2.447-22.702,4.54
				C207.172,248.78,207.172,242.12,207.172,235.461z"/>
			<path style="&st0;" d="M196.275,257.255c-20.867,13.337-52.308,16.101-85.359,17.254c-1.419-2.818-2.52-5.955-5.448-7.265
				C125.777,253.051,165.94,248.334,196.275,257.255z"/>
			<path style="&st0;" d="M299.796,267.244c-0.84,3.397-3.704,4.771-4.54,8.172c-33.728-0.175-63.485-4.318-85.359-16.345
				C238.956,248.688,280.204,255.664,299.796,267.244z"/>
			<path style="&st0;" d="M198.091,260.887c2.105,4.252,0.313,12.4,0.908,18.162c-6.805-3.486-12.763-7.82-22.702-8.173
				C182.698,266.683,192.453,265.843,198.091,260.887z"/>
			<path style="&st0;" d="M207.172,261.795c6.393,4.202,14.009,7.18,22.702,9.081c-7.565,2.726-16.142,4.441-21.794,9.081
				C205.975,275.705,207.768,267.557,207.172,261.795z"/>
			<path style="&st0;" d="M94.571,283.589c-1.809-6.047,5.307-3.168,4.541-8.173c-7.975-3.136-11.75,13.698-1.816,14.529
				c10.276,17.572,23.543,32.152,29.966,53.577c-22.485-7.401-28.287-30.963-36.323-50.853c-2.555-6.324-7.459-10.287-6.356-17.254
				c1.975-12.479,22.783-11.985,23.61,0.908C108.66,283.623,99.99,291.139,94.571,283.589z"/>
			<path style="&st0;" d="M279.818,344.43c3.401-14.567,18.942-41.753,29.059-53.576c2.938-3.435,6.138-2.382,6.356-6.356
				c0.24-4.377-4.047-7.635-8.173-9.081c-2.842,5.673,4.535,3.059,4.54,8.173c-3.736,9.429-13.37,2.294-13.621-4.54
				c-0.512-13.913,21.37-15.094,23.61-2.725c1.409,7.781-4.486,10.367-7.265,17.254c-4.37,10.833-5.638,24.284-13.621,34.507
				C295.089,335.274,287.916,339.072,279.818,344.43z"/>
			<path style="&st0;" d="M196.275,280.865c-16.819,13.021-37.653,0.947-53.577-4.541C161.3,270.4,181.891,272.062,196.275,280.865z
				"/>
			<path style="&st0;" d="M262.564,276.324c-15.07,8.336-33.229,16.903-52.668,7.265
				C220.912,271.778,243.101,273.364,262.564,276.324z"/>
			<path style="&st0;" d="M192.643,307.199c-35.734,0.925-58.198-11.421-83.543-20.886c-1.646-2.534,3.129-4.926,1.816-9.989
				C150.699,273.471,174.048,291.892,192.643,307.199z"/>
			<path style="&st0;" d="M294.348,278.141c0.748,3.187,2.404,5.465,2.724,9.081c-24.847,9.704-50.696,23.1-84.451,20.886
				C234.199,292.568,255.82,273.9,294.348,278.141z"/>
			<path style="&st0;" d="M197.183,284.497c2.108,5.156,0.311,14.219,0.908,20.886c-7.247-4.86-13.135-11.08-21.794-14.529
				C182.347,287.822,192.113,288.508,197.183,284.497z"/>
			<path style="&st0;" d="M207.172,285.405c6.422,2.962,13.802,4.964,22.702,5.448c-6.904,5.506-15.846,8.975-20.886,16.346
				C207.434,300.883,207.97,292.478,207.172,285.405z"/>
			<path style="&st0;" d="M160.86,342.614c-28.828-9.009-44.134-31.539-61.749-51.761c2.263-0.514,6.555-3.666,7.265-2.724
				C133.478,297.351,148.712,318.439,160.86,342.614z"/>
			<path style="&st0;" d="M306.152,290.854c-14.92,22.918-33.688,41.984-59.933,53.576c4.68-14.95,21.069-38.825,35.414-48.128
				C287.907,292.233,297.92,288.6,306.152,290.854z"/>
			<path style="&st0;" d="M131.802,299.935c20.703,2.605,42.968,11.515,50.853,29.967
				C159.589,329.657,144.881,313.19,131.802,299.935z"/>
			<path style="&st0;" d="M272.554,299.935c2.322-0.04,1.107,0.675,0.908,1.816c-12.909,13.729-25.979,27.296-49.944,29.966
				C230.411,311.671,252.247,306.567,272.554,299.935z"/>
			<path style="&st0;" d="M236.23,310.831c-6.802,5.306-12.118,12.098-16.346,19.978c-5.595-4.394-8.438-11.538-10.896-19.069
				C218.467,311.835,227.921,311.906,236.23,310.831z"/>
			<path style="&st0;" d="M248.943,326.269c1.997,4.245-7.717,12.166-8.173,19.978c-8.22-1.466-12.494-6.879-18.161-10.896
				C231.878,332.813,241.653,330.783,248.943,326.269z"/>
			<path style="&st0;" d="M139.066,336.258c6.156,0.814,13.822,7.965,21.794,9.988c-4.45,2.921-15.125,2.028-20.886,0.908
				C141.868,344.373,140.704,338.371,139.066,336.258z"/>
			<path style="&st0;" d="M275.277,342.614c1.064,0.146,0.767,1.655,0.908,2.724c-2.019,0.706-3.541,1.908-6.356,1.816
				C271.079,345.074,274.355,345.021,275.277,342.614z"/>
			<path style="&st0;" d="M116.365,67.467c0.024,0.883,1.111,0.705,1.816,0.908c-1.527,1.802-5.211,1.448-6.356,3.632
				C110.443,71.15,114.004,67.589,116.365,67.467z"/>
			<path style="&st0;" d="M167.217,113.779c-4.005,16.882-14.681,34.96-30.875,42.68
				C134.787,134.016,154.099,124.575,167.217,113.779z"/>
			<path style="&st0;" d="M238.955,114.687c13.554,7.637,31.961,18.284,32.69,41.771
				C253.905,149.378,246.534,131.928,238.955,114.687z"/>
			<path style="&st0;" d="M250.76,145.562c4.661,3.217,13.336,10.268,19.069,15.438c-5.762,1.806-9.891,5.244-14.529,8.172
				C253.603,161.485,254.001,151.704,250.76,145.562z"/>
			<path style="&st0;" d="M74.593,151.01c-1.252,6.625-4.385,19.219-5.449,29.058c-3.506-6.786-8.079-12.504-11.805-19.069
				C62.126,156.705,68.337,153.834,74.593,151.01z"/>
			<path style="&st0;" d="M179.022,185.517c4.352-6.544,9.828-11.966,11.805-20.886c4.597,9.932,4.539,24.52,10.897,32.69
				C195.001,196.167,186.926,188.515,179.022,185.517z"/>
			<path style="&st0;" d="M278.91,166.447c7.865,3.939,11.268,12.342,17.253,18.162c0.965,10.235,0.911,21.489,3.633,29.966
				C290.071,204.925,276.864,190.894,278.91,166.447z"/>
			<path style="&st0;" d="M352.464,168.264c3.941,0.613,7.05,9.89,9.989,14.529c-2.152,2.994-6.768,3.524-8.173,7.264
				C351.572,184.896,355.173,173.425,352.464,168.264z"/>
			<path style="&st0;" d="M151.779,176.436c6.655,2.124,11.15,6.406,17.253,9.081c-8.357,3.75-16.922,7.293-23.61,12.713
				C146.096,193.14,150.885,184.328,151.779,176.436z"/>
			<path style="&st0;" d="M43.719,186.425c10.581,0.926,11.344,19.527,14.529,30.875C53.208,207.204,43.953,201.325,43.719,186.425z
				"/>
			<path style="&st0;" d="M173.573,188.241c6.428,4.469,15.376,6.417,19.978,12.713c-11.852,0.861-21.44,3.986-29.966,8.173
				C164.749,203.623,171.912,196.273,173.573,188.241z"/>
			<path style="&st0;" d="M198.091,204.587c2.112,6.666,0.308,17.248,0.908,25.426c-7.429-1.501-16.659-2.637-23.61,0
				C180.511,222.72,192.438,214.373,198.091,204.587z"/>
			<path style="&st0;" d="M197.183,310.831c-2.473,7.214-6.365,13.007-9.989,19.07c-5.683-6.728-9.852-14.97-17.253-19.979
				C172.764,309.349,187.951,311.795,197.183,310.831z"/>
			<path style="&st0;" d="M117.272,318.096c6.207,5.905,21.171,10.911,20.886,26.334
				C126.803,340.046,124.32,326.788,117.272,318.096z"/>
			<path style="&st0;" d="M287.991,318.096c-4.362,8.053-8.707,23.98-20.886,27.242
				C268.058,330.248,281.467,327.615,287.991,318.096z"/>
			<path style="&st0;" d="M154.504,325.36c7.366,1.116,17.514,7.301,28.15,8.173c-4.172,5.514-9.966,9.406-17.254,11.805
				C163.072,337.375,159.322,330.834,154.504,325.36z"/>
			<path style="&st0;" d="M266.197,336.258c0.716,1.666-1.979,7.676-0.908,12.713c-6.604-0.358-14.789,0.865-19.978-0.908
				C252.427,344.281,260.021,340.978,266.197,336.258z"/>
			<path style="&st0;" d="M129.986,341.706c2.353,0.978,3.376,3.283,6.356,3.632C135.396,346.517,128.601,345.867,129.986,341.706z"
				/>
		</g>
	</g>
</g>
</svg>
